<?xml version="1.0" encoding="utf-8"?>
<!-- Generator: Adobe Illustrator 15.1.0, SVG Export Plug-In  -->
<!DOCTYPE svg PUBLIC "-//W3C//DTD SVG 1.1//EN" "http://www.w3.org/Graphics/SVG/1.1/DTD/svg11.dtd" [
	<!ENTITY ns_flows "http://ns.adobe.com/Flows/1.0/">
]>
<svg version="1.1"
	 xmlns="http://www.w3.org/2000/svg" xmlns:xlink="http://www.w3.org/1999/xlink" xmlns:a="http://ns.adobe.com/AdobeSVGViewerExtensions/3.0/"
	 x="0px" y="0px" width="512px" height="512px" viewBox="-94.639 0 512 512" enable-background="new -94.639 0 512 512"
	 xml:space="preserve">
<defs>
</defs>
<path fill="#9DA0A1" d="M310.551,226.422L96.298,12.486C88.407,4.161,78.555,0,66.72,0S45.032,4.166,37.142,12.486l-24.976,24.65
	C4.059,45.244,0.005,55.098,0.005,66.709c0,11.393,4.053,21.363,12.161,29.905l159.709,159.387L12.159,415.716
	C4.054,423.822,0,433.677,0,445.289c0,11.391,4.053,21.365,12.159,29.903l24.978,24.647c8.106,8.106,17.97,12.159,29.578,12.159
	c11.613,0,21.474-4.053,29.578-12.159l214.258-213.936c8.11-8.544,12.168-18.513,12.168-29.904
	C322.72,244.388,318.661,234.528,310.551,226.422z"/>
</svg>
