<?xml version="1.0" encoding="utf-8"?>
<!-- Generator: Adobe Illustrator 15.1.0, SVG Export Plug-In  -->
<!DOCTYPE svg PUBLIC "-//W3C//DTD SVG 1.1//EN" "http://www.w3.org/Graphics/SVG/1.1/DTD/svg11.dtd" [
	<!ENTITY ns_flows "http://ns.adobe.com/Flows/1.0/">
]>
<svg version="1.1"
	 xmlns="http://www.w3.org/2000/svg" xmlns:xlink="http://www.w3.org/1999/xlink" xmlns:a="http://ns.adobe.com/AdobeSVGViewerExtensions/3.0/"
	 x="0px" y="0px" width="500px" height="500px" viewBox="0 0 500 500" enable-background="new 0 0 500 500" xml:space="preserve">
<defs>
</defs>
<path fill="#FFFFFF" d="M367.448,459.585c5.093,0,9.224-4.128,9.224-9.222c0-5.092-4.132-9.221-9.224-9.221
	c-5.094,0-9.224,4.129-9.224,9.221C358.226,455.457,362.354,459.585,367.448,459.585L367.448,459.585z M132.551,459.585
	c5.094,0,9.224-4.128,9.224-9.222c0-5.092-4.129-9.221-9.224-9.221c-5.093,0-9.222,4.129-9.222,9.221
	C123.329,455.457,127.458,459.585,132.551,459.585L132.551,459.585z M255.266,77.472c1.193-0.303,2.643-0.344,3.498,0.708
	c6.874,6.673,13.085,13.993,19.211,21.36c7.078,8.804,13.937,17.855,19.424,27.765c0.229,0.142,0.688,0.425,0.921,0.565
	c17.104-3.655,34.948-3.733,52.084-0.188c16.366,3.431,31.993,10.305,45.61,20.005c-2.03,5.716-3.169,11.688-4.862,17.505
	c-4.852,19.983-9.173,40.104-12.889,60.326c-0.544,2.236-0.767,4.557-1.468,6.754c1.126,0.479,2.277,0.923,3.438,1.321
	c0.423-3.103,1.058-6.161,1.479-9.256c0.962-4.94,1.865-9.894,2.701-14.854c3.823-19.735,7.942-39.444,13.479-58.783
	c0.409-2.083,3.207-3.62,4.973-2.15c0.897,0.587,1.229,1.854,0.949,2.865c-5.565,19.027-9.751,38.448-13.405,57.926
	c-1.659,8.676-3.54,17.345-4.681,26.1c1.436,0.593,2.872,1.192,4.31,1.8c1.341-9.263,3.249-18.435,4.946-27.629
	c3.312-16.709,6.814-33.398,11.34-49.831c0.788-2.4,0.876-5.353,3.362-6.708c1.183-0.006,2.375,0.129,3.445,0.681l-0.066,0.931
	c-0.067,0.762-0.067,1.522-0.007,2.285c-0.035,1.771-0.784,3.423-1.213,5.121c-4.294,15.294-7.693,30.824-10.978,46.36
	c-2.271,11.595-4.731,23.154-6.547,34.821c5.577,2.844,11.124,5.81,16.288,9.341c1.607,1.005,2.543,3.025,3.183,4.82
	c-0.257,0.646-0.507,1.293-0.754,1.94c4.645,5.371,8.997,10.985,13.085,16.789c1.881,2.757,4.165,6.16,2.554,9.592
	c-3.741,4.437-9.983,4.012-14.892,6.248c-3.949,1.369-6.989,4.344-10.611,6.312c-2.108,1.293-4.372,2.338-6.367,3.818
	c-0.495,0.34-0.979,0.675-1.466,1.014c0.098,2.082,1.168,4.98-1.175,6.241c-0.233,0.688-0.687,1.191-1.34,1.517
	c-3.362,0.769-6.512,2.185-9.803,3.161c-3.624,24.703-7.201,50.282-9.164,75.156c-0.421,5.354-1.466,12.382-5.867,6.705
	c-9.526-12.277-25.88-25.7-39.787-31.369c-10.346-4.511-21.9-6.909-33.16-5.271c-14.127,1.92-27.272,9.773-35.948,21.036
	c0.094,4.496,1.166,8.958,2.021,13.381c-4.396,0.134-8.79,0.026-13.185,0.06c-1.94-16.783-3.365-33.648-4.267-50.502
	c-0.614-3.771,0.208-7.604-0.426-11.373c-0.473-3.194,0.438-6.364,0.25-9.559c0.033-3.814-0.175-7.631,0.007-11.432
	c0.714-3.392-0.021-6.874,0.531-10.287c0.357-2.485-0.222-5.021,0.29-7.487c0.284-1.456,0.177-2.954,0.143-4.428
	c-4.43,7.413-10.529,14.1-18.472,17.773c-4.023,1.686-9.181,2.978-12.739-0.357c-3.933,0.813-7.181,3.417-11.13,4.179
	c-3.681,1.118-7.524,0.933-11.313,0.924c-0.605-0.661-1.146-1.68-2.244-1.354c-3.014-0.113-5.872,1.051-8.857,1.254
	c-5.799,0.46-11.766,0.982-17.462-0.453c-1.388-0.26-1.691-1.766-2.122-2.862c-2.729-1.173-5.79-0.392-8.67-0.647
	c-3.613-0.263-7.366,0.581-10.865-0.438c1.044,4.839,1.543,9.785,2.397,14.667c1.27,8.451,2.421,16.916,3.83,25.351
	c9.855-7.616,21.457-13.083,33.733-15.321c12.465-2.237,25.435-0.701,37.312,3.53c8.506,3.432,15.831,7.549,23.136,12.972
	c-1.685,1.348-3.39,2.675-4.939,4.179c-10.592-7.84-22.873-13.784-36.081-15.314c-13.365-1.914-27.011,1.449-38.8,7.854
	c-7.653,4.156-11.538,8.951-15,11.714c-1.969,1.571-3.771,1.457-4.385-2.607c-0.924-6.105-1.74-12.229-2.754-18.313
	c-1.409-9.746-2.743-19.507-4.469-29.192c-1.591-0.377-3.154-0.843-4.74-1.24c2.203,16.561,4.456,33.108,6.715,49.663
	c0.512,3.909,1.273,7.79,1.536,11.729c1.174-0.608,2.267-1.384,3.148-2.374c13.489-12.657,31.386-21.057,50.026-21.582
	c3.142-0.809,6.298,0.235,9.465,0.127c2.791,0.116,5.541,0.712,8.317,1.013c12.208,2.353,23.729,7.448,34.191,14.087
	c-0.526,0.646-1.051,1.296-1.598,1.929c-1.001,0.684-2.229,1.87-3.49,1.725c-0.914-0.108-11.99-5.945-13.961-6.811
	c-7.345-3.221-15.117-5.48-23.104-6.321c-10.36-1.003-21.02,0.44-30.626,4.531c-7.737,2.999-14.613,7.786-21.071,12.929
	c-1.875,1.292-3.358,3.033-5.077,4.509c-1.55,1.528-3.114,3.054-4.551,4.69c-1.959,2.61-6.098,5.452-6.61,0.088
	c-2.427-25.436-5.708-50.802-9.365-76.099c-1.646-0.27-3.257-0.692-4.834-1.219c0.324,2.526,0.682,5.063,1.14,7.575
	c2.271,15.963,4.422,31.942,6.755,47.896c0.977,8.091,2.156,16.158,3.351,24.227c0.336,3.183,1.018,6.32,1.187,9.53
	c1.106-0.815,2.085-1.779,2.967-2.831c12.262-15.291,39.223-28.907,56.895-30.353c18.474-1.948,37.839,4.921,50.479,18.631
	c1.104,1.199,2.549,2.123,3.357,3.578c-1.417,1.646-3.067,3.054-4.801,4.36c-7.672-10.568-21.153-18.487-33.813-20.55
	c-9.229-1.847-18.769-0.694-27.713,1.96c-18.747,5.972-34.299,17.873-46.396,32.838c-6.797,8.41-6.295-0.286-6.812-5.352
	c-3.173-31.121-7.269-62.146-11.884-93.083c-2.258-0.789-4.477-1.691-6.559-2.871c-0.143-1.194-0.048-2.757-1.423-3.243
	c-9.862-4.9-18.728-11.539-27.328-18.352c-2.778-2.38-5.629-4.697-8.03-7.458c0.439-1.427,0.843-3.064,2.299-3.779
	c3.851-1.449,7.914-2.219,11.756-3.694c5.71-2.108,10.826-5.466,15.938-8.7c-0.081-0.789-0.224-1.564-0.493-2.313
	c1.133-1.787,3.424-2.117,5.104-3.203c-1.02-5.169-1.862-10.379-2.954-15.528c-4.408-23.591-9.498-47.074-16.071-70.167
	c-0.795-1.762,0.835-4.187,2.858-3.613c2.009-0.243,2.871,1.725,3.229,3.323c7.638,27.412,12.91,55.405,17.811,83.418
	c1.551-0.756,2.953-1.76,4.314-2.805c-5.447-28.499-10.274-57.205-18.551-85.056c-0.088-1.167-0.277-2.582,0.64-3.492
	c1.483-0.762,3.539-0.581,4.551,0.856c0.862,1.711,1.24,3.62,1.786,5.452c6.978,25.668,11.934,51.826,16.442,78.02
	c0.983-0.708,1.927-1.469,2.837-2.271c-0.014-1.94-0.627-3.814-0.979-5.709c-4.738-25.653-10.245-51.192-17.209-76.342
	c0.041-0.31,0.129-0.917,0.176-1.221c21.181-15.037,47.343-22.876,73.297-22.148c16.003,0.229,31.966,3.715,46.69,9.996
	c1.92-5.99,2.15-12.974,6.56-17.854c0.43-0.095,1.293-0.283,1.717-0.377c4.733-9.294,11.368-17.45,16.557-26.483
	C251.307,86.349,252.926,81.726,255.266,77.472v-0.424V77.472L255.266,77.472z M184.17,455.07c0.715-2.519,1.051-4.413,1.009-5.682
	c-0.096-2.144-1.076-3.479-2.94-4.008l-3.155-0.595l0.178-0.629l16.574,0.161L185.447,480.9c-1.099,3.869-1.518,6.495-1.256,7.878
	c0.411,2.281,2.292,3.899,5.648,4.854l-0.178,0.63l-22.792-6.474l0.18-0.628c3.308,0.938,5.73,0.567,7.265-1.11
	c1.023-1.118,2.077-3.588,3.162-7.411L184.17,455.07L184.17,455.07z M211.183,487.559c-0.182,2.366,0.447,4.332,1.883,5.898
	c1.437,1.565,3.36,2.441,5.777,2.628c2.271,0.17,4.549-0.251,6.837-1.268s4.253-2.41,5.895-4.18c1.641-1.77,2.86-3.768,3.662-5.988
	c0.8-2.224,1.304-4.688,1.511-7.393c-1.891,1.847-4.154,3.172-6.79,3.966c-2.637,0.795-5.354,1.087-8.156,0.873
	c-4.639-0.353-8.471-2.026-11.499-5.029c-3.161-3.152-4.567-7.023-4.218-11.614c0.386-5.072,2.581-9.011,6.585-11.815
	c3.746-2.629,8.229-3.748,13.445-3.351c6.666,0.507,11.604,3.313,14.813,8.415c2.86,4.54,4.03,10.265,3.505,17.173
	c-0.586,7.682-3.288,13.683-8.112,18.004c-4.822,4.319-11.074,6.19-18.757,5.607c-2.028-0.157-4.031-0.49-6.009-1.005
	c-1.977-0.516-3.952-1.235-5.922-2.162l5.209-10.973l0.713,0.2L211.183,487.559L211.183,487.559z M223.658,478.74
	c3.479,0.266,6.515-0.673,9.105-2.807c2.592-2.134,4.02-4.942,4.285-8.42c0.267-3.524-0.638-6.631-2.716-9.314
	c-2.081-2.684-4.86-4.16-8.336-4.425c-3.529-0.268-6.421,0.728-8.684,2.985c-2.261,2.256-3.527,5.173-3.8,8.747
	c-0.268,3.525,0.485,6.547,2.263,9.063C217.553,477.086,220.18,478.478,223.658,478.74L223.658,478.74z M270.358,463.908
	c4.729,0.176,8.718,1.55,11.978,4.118c3.563,2.792,5.519,6.48,5.869,11.068c0.429,5.651-1.534,10.489-5.894,14.515
	c-4.088,3.76-9.053,5.861-14.9,6.305c-3.141,0.24-6.27-0.021-9.389-0.779c-3.117-0.756-6.244-1.942-9.38-3.549l6.622-11.655
	l0.456,0.26c-0.193,0.646-0.343,1.252-0.444,1.817c-0.103,0.565-0.127,1.213-0.072,1.936c0.201,2.659,1.648,4.735,4.338,6.231
	c2.384,1.324,4.979,1.881,7.778,1.667c3.815-0.29,7.112-1.827,9.89-4.614c2.775-2.786,4.021-6.063,3.735-9.83
	c-0.302-3.964-2.281-7.018-5.942-9.168c-3.207-1.896-6.91-2.683-11.113-2.363c-0.869,0.066-1.579,0.146-2.133,0.235
	c-0.554,0.093-1.809,0.355-3.767,0.797l15.194-13.907l-11.304,0.857c-2.848,0.219-4.792,0.56-5.826,1.026
	c-1.597,0.704-2.82,2.182-3.672,4.435l-0.664-0.097l2.506-12.143c0.367,0.359,0.794,0.583,1.289,0.669
	c0.491,0.081,1.076,0.1,1.752,0.047l1.086-0.083l23.044-1.75l1.639,2.354L270.358,463.908L270.358,463.908z M330.235,486.938
	c-0.385-0.295-0.723-0.462-1.012-0.507c-0.289-0.043-0.69,0.008-1.203,0.153l-1.119,0.317l-31.321,8.894l0.813-1.139
	c2.708-3.94,4.778-7.021,6.215-9.242c2.194-3.441,4.037-6.71,5.526-9.802c2.063-4.264,3.504-7.796,4.318-10.594
	c1.317-4.403,1.555-8.098,0.705-11.079c-0.833-2.935-2.32-4.902-4.471-5.905c-2.148-1.003-4.714-1.079-7.698-0.231
	c-1.957,0.557-3.652,1.454-5.09,2.69c-1.436,1.239-2.548,2.776-3.339,4.611c-0.478,1.145-0.678,2.309-0.592,3.493
	c0.084,1.185,0.352,2.567,0.802,4.151l-0.658,0.339L286,451.682c1.888-1.692,4.123-3.26,6.712-4.699
	c2.588-1.441,5.115-2.513,7.588-3.212c4.332-1.231,8.371-1.371,12.119-0.421c4.563,1.172,7.421,3.784,8.569,7.839
	c0.688,2.426,0.753,4.95,0.188,7.576c-0.408,1.93-1.289,4.321-2.644,7.174l-7.622,13.343l-3.921,5.874l11.814-3.354
	c3.868-1.1,6.389-2.067,7.562-2.905c2.044-1.487,3.267-3.847,3.653-7.08l0.741-0.059L330.235,486.938L330.235,486.938z
	 M107.837,411.438l-0.352,0.335l-0.1,0.096l-0.11-0.084c-0.458-0.354-0.925-0.598-1.397-0.728c-0.473-0.129-0.955-0.147-1.449-0.058
	c-0.495,0.091-1.083,0.367-1.766,0.823c-0.692,0.464-1.48,1.113-2.356,1.952L84.58,428.768c-0.685,0.648-1.241,1.23-1.67,1.74
	c-0.423,0.497-0.718,0.924-0.886,1.276v-0.002c-0.269,0.585-0.36,1.177-0.277,1.771c0.083,0.599,0.345,1.205,0.783,1.814
	l0.083,0.113l-0.102,0.098l-0.351,0.336l-0.116,0.111l-0.112-0.118l-8.967-9.401l-0.111-0.118l0.117-0.11l0.313-0.298l0.104-0.1
	l0.11,0.094c0.574,0.477,1.164,0.771,1.761,0.875c0.596,0.104,1.207,0.025,1.833-0.239l0,0c0.412-0.176,0.902-0.479,1.465-0.907
	c0.569-0.432,1.218-0.994,1.943-1.687l15.375-14.657c0.708-0.675,1.244-1.266,1.605-1.771c0.351-0.484,0.534-0.886,0.554-1.195
	v-0.005c0.033-0.421-0.126-0.938-0.482-1.547c-0.367-0.627-0.936-1.347-1.707-2.157l-4.13-4.33
	c-0.773-0.812-1.452-1.416-2.033-1.814c-0.563-0.384-1.028-0.572-1.393-0.563h-0.001c-0.371,0.009-0.824,0.178-1.357,0.509
	c-0.547,0.336-1.176,0.842-1.883,1.519l-15.375,14.657c-0.75,0.717-1.358,1.346-1.827,1.891c-0.462,0.537-0.784,0.988-0.965,1.354
	l0,0c-0.292,0.608-0.397,1.217-0.316,1.823c0.083,0.609,0.355,1.222,0.819,1.834l0.087,0.113l-0.103,0.1l-0.313,0.295l-0.116,0.112
	l-0.11-0.115l-8.968-9.403l-0.11-0.117l0.116-0.109l0.351-0.336l0.101-0.098l0.109,0.086c0.459,0.354,0.918,0.607,1.376,0.758h0.001
	c0.453,0.146,0.907,0.19,1.363,0.137c0.454-0.057,1.008-0.299,1.66-0.729c0.665-0.438,1.432-1.072,2.296-1.896l15.728-14.99
	c0.667-0.636,1.202-1.258,1.604-1.861l0,0c0.397-0.597,0.666-1.177,0.803-1.738v-0.001c0.105-0.433,0.131-0.813,0.074-1.144
	c-0.056-0.318-0.19-0.592-0.404-0.813c-0.096-0.104-0.197-0.174-0.303-0.221c-0.101-0.043-0.21-0.061-0.324-0.054l-0.318,0.021
	l0.171-0.27l5.904-9.278l0.08-0.127l0.131,0.072l0.452,0.238l0.137,0.073l-0.066,0.139c-0.623,1.33-1.055,2.64-1.292,3.921
	c-0.236,1.279-0.283,2.54-0.138,3.773v0.002c0.155,1.368,0.542,2.679,1.158,3.929c0.618,1.252,1.466,2.443,2.546,3.578l16.78,17.596
	l0.111,0.119L107.837,411.438L107.837,411.438z M45.946,367c-1.339,1.322-2.439,2.674-3.299,4.055
	c-0.886,1.426-1.517,2.881-1.89,4.363c-0.403,1.627-0.475,3.209-0.211,4.743c0.263,1.539,0.858,3.033,1.788,4.481
	c1.391,2.166,3.078,3.725,5.064,4.672c1.987,0.949,4.277,1.287,6.869,1.019l0.147-0.016l0.026,0.145l0.111,0.572l0.029,0.151
	l-0.153,0.036l-10.483,2.43l-0.299,0.069l0.112-0.287c0.136-0.344,0.177-0.696,0.125-1.06c-0.055-0.367-0.208-0.745-0.456-1.135
	c-0.045-0.069-0.199-0.271-0.457-0.601c-0.269-0.343-0.638-0.807-1.105-1.387c-0.954-1.188-1.677-2.164-2.164-2.925
	c-1.63-2.542-2.707-5.095-3.229-7.654c-0.522-2.561-0.49-5.131,0.099-7.703c0.59-2.571,1.658-4.904,3.203-6.995
	c1.545-2.087,3.566-3.933,6.064-5.53c2.32-1.489,4.662-2.37,7.021-2.642c2.361-0.272,4.741,0.063,7.138,1.008
	c2.211,0.862,4.291,2.167,6.233,3.91c1.942,1.736,3.751,3.916,5.428,6.527c0.302,0.471,0.64,1.029,1.015,1.674
	c0.375,0.643,0.786,1.368,1.233,2.183c0.436,0.795,0.787,1.429,1.053,1.903v0.002c0.257,0.458,0.419,0.739,0.484,0.843
	c0.246,0.384,0.479,0.688,0.693,0.913c0.204,0.212,0.392,0.349,0.561,0.406l0.227,0.08l-0.159,0.181l-7.221,8.214l-0.1,0.114
	l-0.119-0.092l-0.369-0.275l-0.123-0.092l0.086-0.126c0.703-1.044,1.231-2.156,1.588-3.345c0.355-1.187,0.539-2.447,0.548-3.782
	c0.009-1.336-0.152-2.602-0.481-3.789c-0.331-1.188-0.832-2.307-1.501-3.353c-1.172-1.827-2.515-3.295-4.024-4.403
	c-1.508-1.104-3.188-1.851-5.033-2.236c-1.845-0.39-3.743-0.352-5.692,0.115c-1.914,0.453-3.88,1.319-5.896,2.598l8.905,13.887
	l0.088,0.137l-0.137,0.087l-2.406,1.542l-0.135,0.085l-0.089-0.134L45.946,367L45.946,367z M44.653,333.574
	c0.98-0.332,1.8-0.646,2.452-0.943c0.646-0.292,1.128-0.567,1.445-0.819c0.542-0.438,0.903-0.943,1.087-1.519
	c0.183-0.577,0.189-1.229,0.017-1.955l-0.034-0.145l0.14-0.047l0.46-0.156l0.154-0.053l0.051,0.151l4.147,12.26l0.053,0.151
	l-0.153,0.054l-0.46,0.152l-0.131,0.044l-0.064-0.123c-0.266-0.514-0.578-0.938-0.93-1.265c-0.348-0.325-0.74-0.558-1.176-0.699
	c-0.435-0.139-1.04-0.152-1.813-0.039c-0.791,0.117-1.752,0.369-2.882,0.75l-20.583,6.964c-1.201,0.407-2.177,0.81-2.925,1.201
	c-0.736,0.39-1.251,0.769-1.542,1.138c-0.29,0.366-0.479,0.79-0.568,1.27c-0.09,0.487-0.078,1.034,0.034,1.64l0.026,0.137
	l-0.134,0.047l-0.459,0.152l-0.153,0.053l-0.052-0.153l-4.146-12.256l-0.052-0.151l0.151-0.053l0.461-0.153l0.137-0.048l0.061,0.128
	c0.315,0.663,0.71,1.17,1.181,1.519c0.467,0.346,1.016,0.535,1.644,0.578c0.428,0.021,0.973-0.043,1.63-0.18
	c0.667-0.141,1.45-0.364,2.345-0.667l2.86-0.968l-5.046-14.912l-2.502,0.848c-2.024,0.686-3.376,1.29-4.054,1.817l-0.002,0.001
	c-0.561,0.422-0.919,0.918-1.077,1.479c-0.158,0.564-0.116,1.207,0.126,1.923l0.052,0.154l-0.153,0.052l-0.46,0.154l-0.151,0.052
	l-0.053-0.151L9.464,318.73l-0.052-0.153l0.151-0.051l0.461-0.157l0.137-0.045l0.061,0.128c0.316,0.663,0.713,1.166,1.191,1.512
	c0.477,0.343,1.038,0.532,1.682,0.566c0.429,0.02,0.971-0.039,1.62-0.174c0.657-0.139,1.426-0.355,2.306-0.653l20.583-6.965
	c0.96-0.325,1.768-0.635,2.414-0.929l0,0c0.638-0.289,1.115-0.564,1.435-0.815c0.54-0.438,0.907-0.947,1.099-1.526
	c0.192-0.58,0.211-1.237,0.055-1.97l-0.029-0.14l0.136-0.046l0.459-0.156l0.154-0.05l0.051,0.149l4.146,12.257l0.053,0.152
	l-0.153,0.053l-0.46,0.154l-0.152,0.051l-0.052-0.151c-0.231-0.685-0.569-1.205-1.012-1.558c-0.44-0.352-0.989-0.543-1.648-0.569
	l0,0c-0.429-0.021-0.986,0.043-1.671,0.19c-0.692,0.15-1.514,0.386-2.459,0.705l-15.322,5.185l5.046,14.912L44.653,333.574
	L44.653,333.574z M31.078,282.181c1.076-0.194,1.974-0.391,2.687-0.59l0,0c0.708-0.197,1.239-0.397,1.59-0.604l0,0
	c0.599-0.349,1.013-0.791,1.245-1.32c0.232-0.533,0.284-1.168,0.154-1.896l-0.029-0.159l0.159-0.029l0.478-0.084l0.16-0.027
	l0.027,0.157l2.275,12.737l0.027,0.159l-0.16,0.028l-0.478,0.085l-0.158,0.027l-0.029-0.159c-0.128-0.712-0.38-1.277-0.757-1.691
	c-0.374-0.416-0.876-0.688-1.504-0.816V288c-0.422-0.086-0.987-0.104-1.695-0.06c-0.715,0.047-1.575,0.158-2.577,0.34l-25.424,4.536
	c0.292,1.588,0.689,3,1.19,4.231c0.516,1.271,1.141,2.353,1.875,3.245c0.733,0.895,1.619,1.627,2.654,2.204
	c1.04,0.578,2.231,1.001,3.579,1.269l0.151,0.028l-0.022,0.151l-0.074,0.506l-0.021,0.148l-0.148-0.011l-10.975-0.726l-0.34-0.021
	l0.231-0.248c0.221-0.237,0.345-0.507,0.374-0.802c0.015-0.154,0.014-0.344-0.003-0.563c-0.018-0.22-0.051-0.472-0.101-0.746
	l-0.181-1.009l-3.639-20.38l-0.181-1.008c-0.046-0.261-0.1-0.494-0.158-0.699c-0.06-0.207-0.123-0.386-0.193-0.537
	c-0.066-0.143-0.152-0.271-0.256-0.376c-0.104-0.107-0.229-0.199-0.373-0.271l-0.303-0.153l0.31-0.138l10.044-4.478l0.136-0.063
	l0.071,0.131l0.244,0.449l0.075,0.136l-0.133,0.079c-1.17,0.714-2.143,1.525-2.917,2.434c-0.771,0.904-1.346,1.905-1.725,3.007
	c-0.378,1.104-0.591,2.338-0.636,3.702c-0.043,1.325,0.07,2.773,0.343,4.348L31.078,282.181L31.078,282.181z M0.503,239.586
	c0.033-1.32,0.148-2.475,0.346-3.457l0,0c0.199-0.991,0.482-1.814,0.847-2.466c0.507-0.896,1.198-1.563,2.074-1.998
	c0.87-0.43,1.921-0.63,3.151-0.6c2.313,0.059,4.446,1.337,6.393,3.834c0.773,0.979,1.505,2.135,2.194,3.463l0,0
	c0.688,1.325,1.337,2.828,1.945,4.505l0,0c0.39,1.08,0.771,2.244,1.142,3.488c0.361,1.213,0.719,2.516,1.07,3.906l9.147,0.23
	c1.034,0.026,1.91,0.014,2.628-0.041l0,0c0.707-0.052,1.255-0.144,1.64-0.271c0.658-0.225,1.173-0.575,1.542-1.052l0,0
	c0.372-0.479,0.603-1.089,0.689-1.829l0.019-0.146l0.146,0.003l0.486,0.013l0.162,0.004l-0.004,0.16l-0.327,12.937l-0.003,0.159
	l-0.162-0.005l-0.486-0.013l-0.14-0.002l-0.017-0.14c-0.086-0.73-0.295-1.341-0.626-1.833c-0.33-0.484-0.781-0.857-1.357-1.111
	c-0.376-0.164-0.896-0.296-1.553-0.393c-0.667-0.097-1.473-0.158-2.415-0.183l-21.724-0.549c-2.027-0.05-3.434,0.054-4.214,0.316
	c-0.659,0.224-1.179,0.573-1.558,1.051c-0.38,0.479-0.624,1.092-0.729,1.831L0.79,259.54l-0.144-0.002l-0.484-0.012L0,259.525
	l0.003-0.16L0.503,239.586L0.503,239.586z M16.732,250.189c-0.475-1.614-0.958-3.058-1.448-4.33
	c-0.513-1.328-1.033-2.471-1.563-3.432c-0.9-1.641-1.863-2.877-2.886-3.707c-1.01-0.82-2.082-1.247-3.213-1.274
	c-0.815-0.021-1.506,0.119-2.068,0.418c-0.559,0.298-0.996,0.756-1.311,1.373c-0.324,0.634-0.575,1.425-0.754,2.371
	c-0.181,0.954-0.286,2.063-0.318,3.329c-0.029,1.172,0.04,2.123,0.206,2.852c0.161,0.705,0.413,1.193,0.753,1.467l0.003,0.003
	c0.242,0.204,0.685,0.365,1.328,0.486c0.663,0.124,1.53,0.198,2.599,0.225L16.732,250.189L16.732,250.189z M30.613,220.398
	c0.39,0.217,0.743,0.412,1.057,0.575c0.318,0.166,0.615,0.312,0.886,0.433l0.003,0.001c0.254,0.12,0.518,0.222,0.782,0.307
	c0.271,0.086,0.549,0.155,0.826,0.203l0.001,0.001c0.402,0.073,0.781,0.07,1.129-0.006h0.001c0.346-0.074,0.669-0.224,0.966-0.443
	c0.298-0.224,0.542-0.486,0.724-0.789c0.185-0.305,0.311-0.65,0.38-1.037l0.027-0.16l0.159,0.028l0.479,0.085l0.159,0.027
	l-0.027,0.158l-1.934,10.827l-0.028,0.159l-0.159-0.027l-0.478-0.086l-0.128-0.022l-0.005-0.131
	c-0.014-0.323-0.043-0.621-0.089-0.892c-0.043-0.267-0.104-0.509-0.181-0.725c-0.074-0.212-0.189-0.433-0.344-0.658
	c-0.156-0.231-0.355-0.473-0.596-0.717c-0.241-0.249-0.537-0.517-0.883-0.798c-0.347-0.283-0.747-0.584-1.198-0.9
	c-0.322-0.221-0.68-0.457-1.071-0.708c-0.389-0.251-0.816-0.52-1.277-0.802l-21.029-12.57c-0.351-0.203-0.669-0.385-0.954-0.545
	c-0.28-0.158-0.508-0.284-0.683-0.376c-0.174-0.092-0.365-0.171-0.574-0.239c-0.208-0.068-0.433-0.124-0.672-0.167H5.88
	c-0.208-0.038-0.404-0.038-0.583,0.001c-0.176,0.037-0.34,0.111-0.488,0.221c-0.153,0.115-0.293,0.257-0.417,0.428
	c-0.125,0.17-0.233,0.368-0.326,0.596l-0.049,0.122l-0.128-0.024l-0.479-0.085l-0.16-0.028l0.028-0.158l2.104-11.783l0.029-0.159
	l0.157,0.027l0.479,0.085l0.121,0.021l0.012,0.124c0.046,0.502,0.195,0.899,0.445,1.187c0.247,0.283,0.6,0.469,1.057,0.55
	c0.134,0.022,0.281,0.039,0.437,0.044c0.154,0.006,0.324,0.002,0.505-0.009c0.182-0.013,0.37-0.03,0.563-0.055l0,0
	c0.188-0.022,0.389-0.054,0.598-0.089h0.001l27.729-4.413l0,0c0.352-0.068,0.693-0.14,1.021-0.212
	c0.339-0.075,0.68-0.154,1.021-0.239c0.535-0.166,0.995-0.416,1.376-0.748c0.382-0.333,0.689-0.752,0.918-1.254l0.052-0.112
	l0.124,0.021l0.478,0.084l0.159,0.029l-0.027,0.157l-2.152,12.047l-0.027,0.16l-0.16-0.027l-0.479-0.087l-0.125-0.022l-0.006-0.128
	c-0.022-0.459-0.107-0.867-0.254-1.219v-0.001c-0.144-0.347-0.348-0.644-0.612-0.888c-0.27-0.247-0.591-0.456-0.964-0.623
	c-0.375-0.168-0.806-0.296-1.287-0.382h-0.001c-1.281-0.229-2.594-0.118-3.933,0.331c-1.348,0.451-2.729,1.245-4.142,2.38
	c-1.542,1.242-2.787,2.672-3.734,4.287c-0.929,1.585-1.574,3.354-1.935,5.303L30.613,220.398L30.613,220.398L30.613,220.398z
	 M8.743,207.701l11.263,6.732c0.185-0.971,0.439-1.897,0.765-2.784c0.352-0.959,0.783-1.872,1.298-2.738
	c0.516-0.87,1.119-1.664,1.808-2.382c0.525-0.55,1.104-1.054,1.73-1.513L8.743,207.701L8.743,207.701z M20.953,158.142
	c-0.215,0.54-0.365,1.086-0.456,1.638c-0.088,0.549-0.116,1.106-0.083,1.669c0.032,0.559,0.147,1.123,0.343,1.69l0,0
	c0.196,0.567,0.476,1.143,0.836,1.722v0.001c1.7,2.706,4.089,5.379,7.167,8.015c1.8,1.538,3.658,2.893,5.573,4.06
	c1.916,1.169,3.889,2.154,5.92,2.955c0.707,0.278,1.397,0.462,2.075,0.549c0.673,0.087,1.333,0.078,1.976-0.027l0,0
	c0.785-0.14,1.467-0.423,2.046-0.847c0.578-0.426,1.056-0.996,1.431-1.709l0.067-0.127l0.134,0.052l0.451,0.178l0.151,0.061
	l-0.06,0.149l-3.521,8.928l-0.061,0.149l-0.148-0.059c-1.024-0.404-2.105-0.891-3.239-1.451c-1.132-0.563-2.323-1.207-3.568-1.93
	c-1.744-1.018-3.412-2.081-5-3.191c-1.587-1.109-3.093-2.266-4.517-3.466H28.47c-1.828-1.554-3.489-3.154-4.981-4.798
	c-1.495-1.646-2.82-3.337-3.978-5.073l-0.001-0.001c-0.207-0.321-0.457-0.601-0.751-0.837c-0.294-0.237-0.636-0.433-1.021-0.583
	c-0.255-0.101-0.493-0.163-0.715-0.188c-0.215-0.021-0.417-0.01-0.603,0.04c-0.18,0.047-0.347,0.145-0.501,0.287
	c-0.163,0.151-0.313,0.354-0.449,0.608l-0.068,0.127l-0.133-0.052l-0.451-0.179l-0.149-0.059l0.059-0.149l8.702-22.068l0.06-0.15
	l0.149,0.06l0.452,0.178l0.131,0.051l-0.032,0.135c-0.129,0.563-0.152,1.089-0.071,1.573c0.081,0.482,0.266,0.93,0.555,1.338l0,0
	c0.291,0.411,0.79,0.831,1.491,1.257c0.712,0.435,1.634,0.875,2.761,1.317l20.214,7.971c0.882,0.348,1.643,0.608,2.28,0.784
	c0.63,0.172,1.143,0.262,1.533,0.266c0.646-0.003,1.221-0.168,1.724-0.49c0.507-0.327,0.948-0.82,1.318-1.476l0.068-0.122
	l0.129,0.051l0.451,0.178l0.151,0.061l-0.061,0.148l-4.765,12.087l-0.06,0.149l-0.15-0.058l-0.401-0.157l-0.135-0.053l0.038-0.139
	c0.383-1.44,0.072-2.617-0.933-3.528v-0.001c-0.33-0.299-0.812-0.614-1.438-0.947c-0.632-0.336-1.416-0.688-2.346-1.054
	l-19.765-7.792c-0.792-0.312-1.476-0.525-2.05-0.636c-0.558-0.11-1.008-0.124-1.347-0.042l0,0c-0.463,0.124-0.896,0.427-1.297,0.91
	C21.673,156.587,21.295,157.271,20.953,158.142L20.953,158.142z M60.934,136.661c0.643,0.412,1.195,0.708,1.659,0.892
	c0.449,0.177,0.811,0.245,1.087,0.21c0.409-0.055,0.851-0.3,1.323-0.737c0.487-0.449,1.004-1.101,1.549-1.95
	c0.767-1.196,1.306-2.356,1.62-3.48c0.311-1.121,0.396-2.209,0.26-3.262c-0.14-1.046-0.495-1.995-1.063-2.838
	c-0.571-0.847-1.361-1.594-2.367-2.237c-1.171-0.751-2.426-1.184-3.762-1.297c-1.343-0.113-2.768,0.092-4.276,0.617h-0.001
	c-1.587,0.544-3.047,1.367-4.375,2.469c-1.292,1.073-2.462,2.411-3.506,4.015L60.934,136.661L60.934,136.661z M68.57,117.99
	c1.395,0.896,2.458,1.956,3.187,3.185c0.73,1.229,1.127,2.625,1.19,4.187l0,0c0.06,1.552-0.222,3.226-0.844,5.019
	c-0.619,1.784-1.577,3.688-2.873,5.708l-7.855,12.256l-0.088,0.134l-0.137-0.086l-0.408-0.264l-0.116-0.073l0.057-0.127
	c0.236-0.529,0.373-1.036,0.407-1.518l0,0c0.036-0.476-0.027-0.927-0.189-1.354c-0.159-0.427-0.527-0.908-1.101-1.439
	c-0.584-0.544-1.379-1.139-2.385-1.783l-18.292-11.726c-1.067-0.686-1.989-1.197-2.766-1.535c-0.762-0.333-1.38-0.499-1.851-0.495
	h-0.001c-0.465,0.003-0.916,0.12-1.346,0.351c-0.437,0.231-0.856,0.583-1.259,1.049l-0.091,0.104l-0.118-0.076l-0.407-0.262
	l-0.137-0.087l0.086-0.136l7.188-11.209l0.088-0.137l0.135,0.087l0.409,0.262l0.113,0.072l-0.051,0.125
	c-0.32,0.791-0.467,1.52-0.438,2.187c0.028,0.661,0.226,1.264,0.593,1.805c0.227,0.33,0.6,0.709,1.12,1.138
	c0.527,0.432,1.206,0.915,2.038,1.446l4.335,2.779c1.478-2.281,3.096-4.23,4.854-5.851c1.795-1.656,3.737-2.966,5.824-3.931
	c2.093-0.966,4.067-1.434,5.92-1.401C65.224,116.425,66.961,116.958,68.57,117.99L68.57,117.99z M84.003,104.174
	c0.751,0.717,1.409,1.295,1.975,1.734c0.56,0.437,1.025,0.736,1.399,0.899v0.001c0.637,0.274,1.254,0.359,1.849,0.255
	c0.597-0.104,1.178-0.403,1.741-0.894l0.111-0.095l0.104,0.1l0.353,0.336l0.116,0.111l-0.11,0.116l-8.932,9.365l-0.109,0.117
	l-0.117-0.112l-0.351-0.334l-0.102-0.095l0.081-0.114c0.333-0.476,0.563-0.947,0.69-1.41v-0.001c0.124-0.459,0.148-0.916,0.07-1.367
	c-0.076-0.45-0.345-0.992-0.807-1.624c-0.469-0.643-1.138-1.378-2.002-2.203L64.234,93.97c-0.917-0.874-1.726-1.554-2.423-2.033
	c-0.685-0.473-1.259-0.752-1.722-0.836c-0.459-0.085-0.923-0.057-1.39,0.086c-0.473,0.146-0.951,0.41-1.435,0.791l-0.11,0.086
	l-0.102-0.098l-0.352-0.335l-0.116-0.11l0.11-0.117l8.931-9.365l0.11-0.117l0.116,0.112l0.352,0.334l0.104,0.101l-0.085,0.113
	c-0.438,0.585-0.705,1.168-0.794,1.748c-0.089,0.575-0.005,1.149,0.249,1.723l0,0c0.182,0.39,0.488,0.845,0.917,1.362
	c0.435,0.527,0.996,1.116,1.678,1.768l2.188,2.084L81.326,79.87l-1.912-1.823c-0.776-0.738-1.457-1.339-2.043-1.799
	c-0.58-0.455-1.063-0.771-1.449-0.946h-0.003c-1.267-0.597-2.418-0.352-3.457,0.737l-0.111,0.117l-0.117-0.11l-0.351-0.335
	L71.766,75.6l0.111-0.116l8.93-9.365l0.111-0.116l0.116,0.11l0.351,0.335l0.104,0.099l-0.086,0.115
	c-0.438,0.584-0.699,1.171-0.782,1.758c-0.083,0.58,0.01,1.164,0.276,1.75v-0.001c0.184,0.393,0.485,0.845,0.908,1.355
	c0.427,0.518,0.976,1.098,1.648,1.738L99.18,88.254c0.734,0.7,1.383,1.271,1.945,1.706c0.553,0.431,1.018,0.729,1.389,0.891v0.001
	c0.638,0.274,1.259,0.364,1.861,0.266c0.604-0.1,1.193-0.389,1.77-0.867l0.111-0.092l0.104,0.099l0.353,0.336l0.117,0.111
	l-0.112,0.116l-8.93,9.364l-0.11,0.117l-0.117-0.111l-0.352-0.335l-0.117-0.111l0.111-0.117c0.499-0.522,0.802-1.063,0.908-1.62
	c0.106-0.553,0.021-1.128-0.26-1.725H97.85c-0.181-0.389-0.496-0.853-0.945-1.391c-0.454-0.544-1.044-1.163-1.767-1.852
	L83.434,81.88L72.568,93.274L84.003,104.174L84.003,104.174z M144.84,55.27c0.681,1.066,1.308,1.917,1.872,2.548
	c0.553,0.621,1.045,1.029,1.475,1.222c0.424,0.19,0.884,0.272,1.37,0.243c0.493-0.03,1.022-0.171,1.581-0.426l0.127-0.06
	l0.074,0.117l0.264,0.409l0.086,0.135l-0.136,0.089l-10.894,6.981l-0.137,0.087l-0.086-0.134l-0.263-0.41l-0.076-0.12l0.11-0.09
	c0.563-0.464,0.958-0.973,1.177-1.522c0.216-0.543,0.266-1.134,0.146-1.768l0,0c-0.086-0.422-0.271-0.934-0.561-1.53
	c-0.292-0.604-0.69-1.298-1.19-2.08L128.052,40.67c-0.683-1.065-1.309-1.917-1.873-2.548c-0.554-0.621-1.046-1.028-1.476-1.222
	c-0.426-0.191-0.883-0.272-1.37-0.243c-0.495,0.028-1.022,0.171-1.581,0.426l-0.127,0.06l-0.075-0.117l-0.263-0.409l-0.086-0.135
	l0.135-0.088l10.895-6.982l0.136-0.086l0.088,0.136l0.262,0.409l0.073,0.114l-0.102,0.092c-0.549,0.496-0.931,1.022-1.146,1.582
	c-0.213,0.553-0.264,1.138-0.152,1.758l0,0c0.085,0.422,0.272,0.934,0.56,1.53c0.294,0.604,0.691,1.298,1.193,2.08L144.84,55.27
	L144.84,55.27z M118.491,72.811c0.411,0.642,0.791,1.142,1.137,1.503c0.333,0.347,0.634,0.562,0.898,0.643
	c0.394,0.122,0.898,0.083,1.51-0.116c0.631-0.207,1.374-0.582,2.223-1.126c1.196-0.766,2.171-1.597,2.925-2.488
	c0.751-0.891,1.284-1.839,1.597-2.853c0.311-1.012,0.384-2.021,0.22-3.023c-0.167-1.01-0.571-2.016-1.217-3.021
	c-0.751-1.172-1.712-2.089-2.878-2.75c-1.17-0.662-2.551-1.07-4.143-1.222l0,0c-1.67-0.169-3.341-0.031-5.009,0.417
	c-1.623,0.435-3.243,1.164-4.863,2.184L118.491,72.811L118.491,72.811z M133.226,59.031c0.895,1.394,1.416,2.802,1.566,4.223
	c0.148,1.421-0.072,2.855-0.667,4.302c-0.595,1.437-1.547,2.84-2.861,4.209c-1.308,1.361-2.972,2.692-4.994,3.988l-12.254,7.855
	l-0.136,0.087l-0.087-0.136l-0.263-0.408l-0.074-0.116l0.104-0.092c0.438-0.382,0.771-0.786,1.004-1.207
	c0.23-0.417,0.362-0.854,0.394-1.312l0,0c0.031-0.455-0.102-1.046-0.399-1.768c-0.304-0.738-0.779-1.61-1.424-2.615l-11.729-18.291
	c-0.683-1.065-1.308-1.916-1.871-2.549c-0.555-0.62-1.047-1.028-1.475-1.221c-0.426-0.191-0.884-0.272-1.371-0.244
	c-0.495,0.029-1.021,0.172-1.582,0.427l-0.127,0.06l-0.075-0.118l-0.262-0.408l-0.087-0.135l0.136-0.088l11.211-7.188l0.137-0.086
	l0.087,0.135l0.263,0.409l0.071,0.113l-0.099,0.092c-0.619,0.584-1.057,1.188-1.311,1.804c-0.252,0.612-0.321,1.244-0.215,1.89
	c0.067,0.393,0.249,0.894,0.543,1.5c0.297,0.612,0.713,1.335,1.246,2.166l2.778,4.335c2.297-1.457,4.581-2.555,6.853-3.292
	c2.323-0.754,4.635-1.134,6.935-1.14c2.304-0.005,4.292,0.395,5.964,1.195C130.837,56.211,132.192,57.42,133.226,59.031
	L133.226,59.031z M226.734,31.168c0.077,1.015,0.18,1.81,0.303,2.384c0.116,0.547,0.249,0.884,0.395,1.008s0.547,0.201,1.205,0.228
	c0.688,0.027,1.642-0.004,2.855-0.097c1.65-0.125,3.108-0.418,4.374-0.878c1.262-0.458,2.333-1.084,3.211-1.873
	c0.878-0.79,1.512-1.661,1.905-2.61v-0.001c0.395-0.949,0.55-1.981,0.463-3.1c-0.106-1.403-0.484-2.666-1.138-3.782
	c-0.648-1.116-1.575-2.088-2.771-2.912c-1.429-0.991-3.145-1.688-5.147-2.087c-1.963-0.391-4.206-0.499-6.722-0.318L226.734,31.168
	L226.734,31.168z M218.812,9.431c-0.07-0.927-0.167-1.712-0.287-2.354c-0.119-0.635-0.262-1.13-0.427-1.481
	c-0.286-0.599-0.681-1.06-1.185-1.38c-0.506-0.321-1.129-0.509-1.86-0.558l-0.14-0.008l-0.014-0.142l-0.039-0.482l-0.011-0.161
	l0.163-0.012l22.364-1.701l1.021-0.077c0.267-0.021,0.506-0.049,0.714-0.086c0.21-0.038,0.395-0.084,0.555-0.14
	c0.147-0.052,0.283-0.124,0.398-0.218c0.117-0.094,0.22-0.209,0.309-0.345L240.556,0l0.107,0.324l3.442,10.444l0.046,0.141
	l-0.138,0.057l-0.471,0.198l-0.142,0.061l-0.065-0.14c-0.593-1.235-1.301-2.286-2.122-3.146c-0.819-0.859-1.753-1.534-2.805-2.02
	c-1.059-0.487-2.265-0.822-3.615-1.005c-1.355-0.183-2.857-0.212-4.511-0.087c-1.318,0.101-2.375,0.205-3.168,0.316l0,0
	c-0.784,0.107-1.311,0.22-1.578,0.334V5.477c-0.238,0.103-0.411,0.284-0.516,0.537c-0.112,0.271-0.15,0.63-0.119,1.07l0.083,1.058
	l0.092,1.218l0.383,5.027c3.388-0.248,6.443-0.142,9.17,0.318c2.776,0.469,5.213,1.304,7.303,2.502
	c1.885,1.073,3.335,2.334,4.349,3.778c1.019,1.452,1.598,3.088,1.736,4.905c0.124,1.648-0.061,3.125-0.559,4.424
	c-0.499,1.303-1.31,2.43-2.433,3.378c-1.2,1.018-2.747,1.832-4.633,2.438c-1.876,0.604-4.095,1.005-6.647,1.197l-16.077,1.223
	l-0.162,0.013l-0.011-0.162l-0.037-0.483l-0.012-0.138l0.137-0.032c0.565-0.13,1.051-0.326,1.458-0.585
	c0.4-0.257,0.723-0.581,0.969-0.968c0.242-0.384,0.404-0.968,0.485-1.745c0.082-0.793,0.076-1.787-0.015-2.979L218.812,9.431
	L218.812,9.431z M265.501,29.602c-0.196,0.396-0.371,0.757-0.521,1.081c-0.148,0.33-0.28,0.631-0.39,0.905v0.002
	c-0.106,0.26-0.195,0.526-0.268,0.799c-0.071,0.274-0.126,0.556-0.161,0.837c-0.052,0.405-0.03,0.78,0.063,1.127
	c0.09,0.342,0.256,0.658,0.492,0.942c0.476,0.575,1.102,0.912,1.88,1.011l0.161,0.021l-0.021,0.161l-0.06,0.479l-0.021,0.16
	l-0.159-0.02l-10.911-1.387l-0.162-0.021l0.021-0.161l0.063-0.479l0.016-0.128l0.13-0.013c0.318-0.028,0.618-0.074,0.887-0.133
	c0.27-0.059,0.507-0.131,0.719-0.216c0.203-0.084,0.416-0.21,0.637-0.377c0.226-0.168,0.454-0.38,0.688-0.631
	c0.234-0.254,0.486-0.562,0.751-0.922c0.269-0.365,0.549-0.778,0.84-1.239c0.205-0.338,0.424-0.71,0.657-1.114l0,0
	c0.233-0.41,0.479-0.849,0.729-1.309l0,0l11.503-21.635l0,0c0.176-0.346,0.343-0.673,0.494-0.98l0,0
	c0.141-0.282,0.254-0.516,0.34-0.699c0.082-0.177,0.155-0.373,0.209-0.586c0.06-0.213,0.104-0.44,0.137-0.68
	c0.025-0.211,0.015-0.405-0.032-0.582c-0.045-0.174-0.126-0.333-0.244-0.477l0,0c-0.124-0.149-0.273-0.283-0.446-0.396
	c-0.176-0.115-0.383-0.215-0.609-0.295l-0.124-0.042l0.015-0.13l0.063-0.481l0.021-0.16l0.162,0.021l11.873,1.509l0.161,0.021
	l-0.021,0.158l-0.062,0.481l-0.016,0.123l-0.122,0.017c-0.5,0.072-0.891,0.241-1.165,0.503c-0.268,0.263-0.435,0.625-0.491,1.086
	c-0.036,0.27-0.032,0.584,0.012,0.939l0,0c0.02,0.179,0.048,0.366,0.08,0.558v0.001c0.035,0.192,0.076,0.392,0.119,0.593v0.003
	l5.801,27.468c0.088,0.346,0.179,0.683,0.264,1.009c0.088,0.318,0.188,0.655,0.292,1.009c0.194,0.528,0.469,0.975,0.816,1.337
	c0.352,0.365,0.787,0.649,1.299,0.854l0.115,0.047l-0.017,0.124l-0.061,0.479l-0.021,0.161l-0.162-0.021L279.6,38.773l-0.159-0.021
	l0.021-0.159l0.06-0.482l0.016-0.125l0.131-0.013c0.459-0.047,0.858-0.151,1.204-0.316c0.339-0.161,0.627-0.381,0.856-0.656
	c0.234-0.281,0.429-0.612,0.573-0.994c0.149-0.383,0.258-0.819,0.317-1.306c0.165-1.291-0.015-2.595-0.528-3.911
	c-0.52-1.321-1.38-2.662-2.585-4.015l0,0c-1.318-1.478-2.809-2.648-4.47-3.514c-1.635-0.851-3.431-1.405-5.396-1.666L265.501,29.602
	L265.501,29.602z M277.084,7.122l-6.156,11.584c0.978,0.136,1.915,0.346,2.819,0.624c0.974,0.303,1.906,0.689,2.799,1.16
	c0.896,0.471,1.718,1.032,2.47,1.683c0.573,0.5,1.109,1.051,1.597,1.654L277.084,7.122L277.084,7.122z M313.952,38.977
	c-0.3,1.05-0.517,1.94-0.648,2.671c-0.13,0.722-0.184,1.289-0.152,1.696c0.051,0.688,0.269,1.256,0.645,1.696
	c0.376,0.443,0.922,0.769,1.635,0.97l0.157,0.045l-0.043,0.154l-0.137,0.468l-0.045,0.155l-0.151-0.045l-12.448-3.534l-0.158-0.045
	l0.048-0.153l0.131-0.468l0.043-0.154l0.156,0.043c0.696,0.197,1.315,0.219,1.854,0.063c0.536-0.155,1.001-0.488,1.394-0.996
	c0.259-0.342,0.526-0.841,0.792-1.496c0.271-0.661,0.547-1.483,0.823-2.465l7.058-24.842c-1.554-0.432-2.995-0.693-4.323-0.784
	c-1.368-0.093-2.618-0.004-3.742,0.266c-1.121,0.268-2.169,0.741-3.144,1.421c-0.977,0.68-1.879,1.567-2.706,2.661l-0.095,0.122
	l-0.125-0.086l-0.422-0.289l-0.125-0.084l0.075-0.129l5.459-9.547l0.166-0.295l0.124,0.319c0.059,0.149,0.135,0.284,0.228,0.396
	c0.092,0.113,0.201,0.209,0.328,0.287c0.136,0.082,0.304,0.164,0.508,0.243l0,0c0.2,0.081,0.44,0.16,0.713,0.237l0.985,0.279
	l19.917,5.655l0.985,0.279l0,0c0.253,0.073,0.485,0.128,0.7,0.165c0.212,0.037,0.399,0.058,0.567,0.061
	c0.154,0.003,0.306-0.019,0.449-0.065l0,0c0.144-0.047,0.281-0.12,0.406-0.216l0.271-0.205l-0.011,0.338l-0.376,10.99l-0.002,0.148
	l-0.15,0.006l-0.513,0.022l-0.151,0.008l-0.014-0.154c-0.129-1.363-0.435-2.594-0.909-3.687c-0.476-1.089-1.127-2.045-1.949-2.866
	c-0.824-0.823-1.843-1.555-3.052-2.193c-1.169-0.62-2.524-1.151-4.057-1.597L313.952,38.977L313.952,38.977z M336.536,47.004
	c-0.301,0.317-0.572,0.612-0.814,0.884h0.002c-0.242,0.27-0.457,0.521-0.64,0.752v0.002c-0.184,0.217-0.342,0.445-0.49,0.682
	c-0.147,0.24-0.283,0.493-0.398,0.753c-0.17,0.373-0.261,0.739-0.271,1.096c-0.017,0.355,0.053,0.706,0.191,1.049l0,0
	c0.144,0.343,0.339,0.643,0.589,0.895c0.247,0.252,0.553,0.46,0.912,0.622l0.146,0.066l-0.065,0.146l-0.202,0.443l-0.064,0.146
	l-0.147-0.066l-10.021-4.53l-0.15-0.067l0.068-0.146l0.202-0.442l0.052-0.118l0.127,0.026c0.316,0.066,0.611,0.11,0.889,0.133
	c0.271,0.022,0.524,0.024,0.746,0.004c0.223-0.02,0.465-0.078,0.725-0.173c0.263-0.094,0.543-0.229,0.842-0.402
	c0.301-0.172,0.632-0.394,0.987-0.658c0.359-0.268,0.749-0.58,1.168-0.939c0.289-0.257,0.607-0.547,0.949-0.866v0.001
	c0.333-0.313,0.7-0.661,1.093-1.042l17.347-17.299c0.292-0.299,0.547-0.563,0.763-0.792c0.214-0.223,0.392-0.414,0.529-0.57
	c0.136-0.146,0.261-0.313,0.376-0.495v-0.001c0.116-0.185,0.225-0.39,0.323-0.611c0.089-0.194,0.138-0.383,0.144-0.564
	c0.007-0.181-0.022-0.356-0.096-0.528c-0.074-0.178-0.176-0.348-0.312-0.51c-0.135-0.164-0.301-0.317-0.498-0.463l-0.104-0.076
	l0.056-0.118l0.2-0.442l0.065-0.148l0.146,0.067l10.908,4.931l0.146,0.067l-0.066,0.146l-0.198,0.441l-0.049,0.112l-0.124-0.021
	c-0.498-0.079-0.919-0.03-1.261,0.141c-0.336,0.171-0.601,0.469-0.79,0.893c-0.061,0.125-0.108,0.262-0.152,0.411
	c-0.044,0.152-0.082,0.316-0.114,0.49v0.001c-0.03,0.176-0.061,0.362-0.083,0.559l0,0c-0.024,0.187-0.045,0.387-0.063,0.601v0.002
	l-2.527,27.96l0,0c-0.034,0.69-0.056,1.388-0.061,2.085c0.028,0.563,0.157,1.072,0.39,1.524c0.227,0.452,0.558,0.853,0.988,1.197
	l0.096,0.08l-0.049,0.113l-0.199,0.441l-0.067,0.147l-0.146-0.066l-11.152-5.042l-0.15-0.065l0.067-0.147l0.202-0.443l0.051-0.116
	l0.127,0.025c0.451,0.09,0.866,0.108,1.242,0.054c0.375-0.056,0.711-0.181,1.014-0.376c0.309-0.2,0.588-0.462,0.84-0.781v-0.001
	c0.258-0.322,0.484-0.708,0.688-1.153c0.537-1.187,0.754-2.484,0.645-3.894c-0.106-1.418-0.538-2.952-1.289-4.599
	c-0.826-1.798-1.908-3.355-3.239-4.672c-1.309-1.29-2.866-2.349-4.668-3.176L336.536,47.004L336.536,47.004z M354.218,28.919
	l-9.293,9.267c0.895,0.417,1.731,0.894,2.513,1.425c0.842,0.575,1.621,1.218,2.335,1.93c0.715,0.714,1.339,1.494,1.865,2.335
	c0.402,0.646,0.752,1.329,1.045,2.05L354.218,28.919L354.218,28.919z M377.49,69.746c-0.642,0.814-1.151,1.525-1.538,2.129
	c-0.378,0.599-0.632,1.091-0.761,1.479l0,0c-0.213,0.662-0.24,1.283-0.079,1.865c0.161,0.584,0.513,1.133,1.052,1.646l0.11,0.102
	l-0.092,0.115l-0.302,0.382l-0.101,0.127l-0.125-0.101l-10.176-7.995l-0.128-0.099l0.1-0.127l0.303-0.382l0.085-0.109l0.123,0.069
	c0.503,0.285,0.992,0.471,1.469,0.552c0.468,0.081,0.925,0.061,1.369-0.06c0.438-0.119,0.953-0.438,1.537-0.958
	c0.598-0.527,1.265-1.264,2.005-2.203l13.423-17.083c0.785-0.996,1.384-1.863,1.794-2.604c0.406-0.728,0.628-1.326,0.671-1.794l0,0
	c0.041-0.466-0.034-0.926-0.221-1.375c-0.19-0.458-0.498-0.909-0.921-1.352l-0.1-0.104l0.088-0.109l0.296-0.382l0.102-0.126
	l0.129,0.1l10.174,7.995l0.129,0.101l-0.104,0.126l-0.296,0.382l-0.093,0.112l-0.119-0.075c-1.242-0.758-2.414-0.829-3.508-0.212
	c-0.372,0.219-0.796,0.567-1.271,1.044c-0.482,0.481-1.016,1.094-1.601,1.839l-1.865,2.374l12.378,9.729l1.633-2.079
	c0.665-0.844,1.197-1.579,1.599-2.203c0.397-0.619,0.663-1.131,0.805-1.534v-0.001c0.237-0.66,0.27-1.271,0.094-1.829
	c-0.175-0.559-0.563-1.073-1.16-1.542l-0.124-0.101l0.101-0.126l0.297-0.381l0.101-0.127l0.129,0.101l10.175,7.994l0.126,0.1
	l-0.101,0.127l-0.298,0.381l-0.092,0.112l-0.119-0.075c-0.627-0.38-1.233-0.585-1.826-0.611c-0.585-0.026-1.157,0.121-1.717,0.444
	l0,0c-0.372,0.217-0.794,0.563-1.261,1.031l0,0c-0.477,0.476-1,1.079-1.574,1.807l-13.427,17.083
	c-0.629,0.801-1.136,1.5-1.513,2.098c-0.375,0.591-0.626,1.081-0.755,1.468l0,0c-0.214,0.662-0.243,1.288-0.088,1.877
	c0.158,0.592,0.504,1.152,1.033,1.68l0.102,0.103l-0.087,0.112l-0.303,0.382l-0.099,0.127l-0.127-0.1l-10.176-7.995l-0.127-0.1
	l0.101-0.127l0.303-0.381l0.099-0.127l0.126,0.1c0.567,0.447,1.135,0.697,1.699,0.75c0.562,0.054,1.126-0.088,1.692-0.423l0,0
	c0.369-0.216,0.8-0.575,1.293-1.074l0,0c0.497-0.503,1.058-1.148,1.676-1.936l9.992-12.716l-12.378-9.729L377.49,69.746
	L377.49,69.746z M412.05,100.394c-0.916,0.874-1.632,1.647-2.147,2.32c-0.502,0.662-0.81,1.223-0.916,1.681
	c-0.107,0.455-0.103,0.92,0.021,1.392c0.123,0.479,0.363,0.971,0.721,1.471l0.081,0.114l-0.103,0.098l-0.351,0.334l-0.117,0.11
	l-0.11-0.116l-8.93-9.363l-0.112-0.117l0.116-0.112l0.354-0.334l0.101-0.1l0.113,0.092c0.563,0.467,1.138,0.756,1.717,0.867
	c0.575,0.108,1.165,0.045,1.765-0.195v0.001c0.397-0.163,0.862-0.444,1.396-0.843l0,0c0.537-0.403,1.146-0.926,1.816-1.564
	l15.727-14.991c0.916-0.874,1.633-1.649,2.145-2.322c0.504-0.662,0.81-1.223,0.918-1.682c0.107-0.453,0.1-0.919-0.021-1.392
	c-0.121-0.479-0.362-0.97-0.722-1.471l-0.079-0.113l0.1-0.097l0.353-0.334l0.115-0.11l0.112,0.116l8.931,9.365l0.11,0.116
	l-0.117,0.111l-0.35,0.334l-0.102,0.095l-0.108-0.083c-0.59-0.442-1.181-0.719-1.768-0.824c-0.587-0.104-1.174-0.043-1.761,0.186
	c-0.396,0.162-0.858,0.443-1.395,0.841l0,0c-0.538,0.403-1.146,0.926-1.815,1.565L412.05,100.394L412.05,100.394z M440.813,100.879
	c1.032-0.734,1.851-1.401,2.454-2c0.597-0.591,0.982-1.11,1.154-1.562c0.174-0.446,0.233-0.91,0.179-1.39
	c-0.053-0.484-0.223-0.988-0.506-1.509l-0.07-0.126l0.117-0.083l0.396-0.28l0.133-0.093l0.093,0.132l7.501,10.543l0.094,0.132
	l-0.132,0.093l-0.399,0.281l-0.118,0.085l-0.095-0.111c-0.374-0.435-0.771-0.764-1.191-0.983v-0.001
	c-0.413-0.216-0.854-0.326-1.317-0.332c-0.465-0.005-1.057,0.163-1.773,0.504c-0.735,0.348-1.6,0.874-2.585,1.575l-2.945,2.094
	c-0.761,0.54-1.362,1.135-1.804,1.783c-0.44,0.645-0.725,1.345-0.854,2.098c-0.126,0.752-0.088,1.508,0.117,2.262
	c0.205,0.758,0.58,1.518,1.118,2.277c0.465,0.652,0.981,1.272,1.553,1.859s1.192,1.144,1.874,1.667
	c0.684,0.528,1.379,1.021,2.084,1.479h0.003c0.682,0.439,1.378,0.853,2.088,1.233l5.457-3.879c0.874-0.621,1.593-1.177,2.155-1.663
	c0.557-0.481,0.957-0.896,1.203-1.243l0.003-0.001c0.412-0.566,0.612-1.145,0.604-1.729c-0.012-0.586-0.235-1.189-0.677-1.806
	l-0.095-0.131l0.133-0.095l0.398-0.28l0.128-0.094l0.098,0.131l7.496,10.546l0.095,0.131l-0.133,0.094l-0.395,0.28l-0.116,0.083
	l-0.098-0.106c-0.491-0.542-1.019-0.909-1.576-1.102l0,0c-0.554-0.191-1.144-0.211-1.773-0.061v0.001
	c-0.418,0.104-0.918,0.315-1.501,0.632c-0.587,0.321-1.264,0.751-2.021,1.29l-17.709,12.592c-0.828,0.59-1.513,1.117-2.041,1.584
	c-0.526,0.461-0.907,0.858-1.139,1.194c-0.394,0.574-0.6,1.167-0.613,1.777c-0.02,0.61,0.151,1.246,0.515,1.902l0.067,0.125
	l-0.117,0.084l-0.396,0.28l-0.133,0.095l-0.094-0.133l-7.498-10.544l-0.093-0.131l0.132-0.095l0.396-0.28l0.132-0.094l0.094,0.131
	c0.418,0.588,0.893,0.99,1.416,1.201c0.522,0.208,1.104,0.232,1.743,0.071c0.419-0.104,0.934-0.325,1.547-0.664
	c0.617-0.343,1.337-0.804,2.154-1.384l9.837-6.995c-0.91-0.435-1.79-0.905-2.645-1.414c-0.935-0.557-1.835-1.157-2.702-1.803
	c-0.873-0.646-1.681-1.347-2.42-2.098s-1.415-1.556-2.023-2.412c-0.835-1.172-1.413-2.366-1.737-3.579
	c-0.324-1.215-0.396-2.452-0.212-3.705c0.186-1.254,0.605-2.396,1.259-3.422l0,0c0.652-1.022,1.534-1.933,2.649-2.727
	L440.813,100.879L440.813,100.879z M451.015,158.168c-0.966,0.38-1.768,0.734-2.404,1.063c-0.631,0.324-1.099,0.623-1.401,0.892
	c-1.035,0.922-1.346,2.099-0.933,3.523l0.041,0.142l-0.138,0.054l-0.451,0.179l-0.148,0.059l-0.063-0.15l-4.745-12.036l-0.059-0.149
	l0.148-0.061l0.451-0.178l0.128-0.05l0.071,0.12c0.291,0.503,0.622,0.91,0.992,1.219c0.361,0.308,0.765,0.521,1.206,0.641h0.002
	c0.439,0.119,1.046,0.103,1.813-0.051c0.788-0.155,1.735-0.453,2.844-0.891l20.213-7.97c1.181-0.464,2.138-0.913,2.864-1.344
	c0.713-0.423,1.209-0.826,1.483-1.212c0.269-0.38,0.438-0.813,0.501-1.297c0.067-0.487,0.031-1.033-0.113-1.633l-0.03-0.137
	l0.132-0.051l0.449-0.179l0.148-0.059l0.062,0.151l4.745,12.037l0.06,0.148l-0.148,0.058l-0.451,0.18l-0.136,0.054l-0.064-0.127
	c-0.351-0.645-0.769-1.131-1.257-1.455c-0.48-0.322-1.042-0.488-1.667-0.498c-0.431,0.001-0.971,0.088-1.62,0.259
	c-0.661,0.175-1.434,0.436-2.311,0.781l-2.81,1.107l5.773,14.646l2.46-0.97c0.995-0.393,1.825-0.758,2.489-1.097
	c0.658-0.335,1.147-0.642,1.47-0.917v-0.001c0.54-0.451,0.874-0.963,1.003-1.531c0.132-0.572,0.059-1.212-0.22-1.917l-0.059-0.149
	l0.148-0.059l0.451-0.18l0.151-0.059l0.06,0.151l4.744,12.037l0.059,0.149l-0.149,0.06l-0.451,0.178l-0.133,0.052l-0.066-0.125
	c-0.349-0.644-0.771-1.129-1.266-1.45c-0.491-0.318-1.062-0.48-1.709-0.483c-0.425,0.001-0.965,0.086-1.607,0.255
	c-0.648,0.17-1.411,0.425-2.271,0.766l-20.214,7.968c-1.888,0.745-3.142,1.391-3.758,1.936c-0.518,0.463-0.858,0.989-1.023,1.576
	c-0.162,0.588-0.147,1.247,0.045,1.971l0.035,0.139l-0.133,0.053l-0.452,0.179l-0.149,0.059l-0.059-0.149l-4.748-12.037l-0.06-0.15
	l0.153-0.059l0.451-0.178l0.146-0.059l0.061,0.149c0.265,0.671,0.628,1.175,1.088,1.505c0.455,0.328,1.016,0.492,1.677,0.489l0,0
	c0.427-0.001,0.981-0.094,1.658-0.274c0.684-0.184,1.494-0.459,2.422-0.826l15.048-5.932l-5.773-14.646L451.015,158.168
	L451.015,158.168z M471.25,233.326c-1.249,0.223-2.272,0.473-3.07,0.75c-0.785,0.273-1.354,0.572-1.695,0.895
	c-0.339,0.318-0.587,0.711-0.748,1.172c-0.161,0.467-0.231,1.009-0.21,1.625l0.002,0.139l-0.137,0.024l-0.479,0.085l-0.156,0.028
	l-0.028-0.161l-2.277-12.736l-0.025-0.158l0.156-0.029l0.479-0.085l0.142-0.025l0.043,0.138c0.211,0.7,0.529,1.257,0.953,1.67
	c0.42,0.409,0.945,0.681,1.578,0.811l0,0c0.42,0.085,0.965,0.107,1.628,0.069c0.67-0.038,1.464-0.14,2.379-0.302l0,0l21.39-3.818
	c1.25-0.225,2.272-0.475,3.07-0.752c0.788-0.271,1.354-0.572,1.694-0.894c0.34-0.32,0.591-0.71,0.752-1.171
	c0.16-0.468,0.231-1.01,0.212-1.624l-0.007-0.141l0.138-0.023l0.479-0.086l0.157-0.028l0.029,0.16l2.272,12.738l0.029,0.157
	l-0.16,0.028l-0.479,0.085l-0.135,0.024l-0.046-0.129c-0.247-0.697-0.589-1.252-1.019-1.664c-0.43-0.409-0.952-0.683-1.568-0.815
	c-0.421-0.083-0.966-0.106-1.628-0.069c-0.67,0.04-1.464,0.141-2.379,0.304L471.25,233.326L471.25,233.326z M465.147,202.269
	c-0.751,0.135-1.36,0.293-1.821,0.474c-0.447,0.174-0.765,0.37-0.938,0.584h-0.005c-0.266,0.316-0.418,0.796-0.47,1.438
	c-0.052,0.662,0.015,1.491,0.188,2.486c0.252,1.397,0.645,2.616,1.18,3.654c0.532,1.034,1.209,1.892,2.021,2.569v-0.001
	c0.815,0.674,1.72,1.129,2.71,1.36c0.992,0.232,2.078,0.245,3.257,0.035c1.369-0.245,2.587-0.779,3.643-1.604
	c1.061-0.826,1.966-1.945,2.719-3.357l0,0c0.796-1.479,1.311-3.074,1.534-4.784c0.221-1.664,0.167-3.441-0.153-5.328
	L465.147,202.269L465.147,202.269z M472.229,221.158c-1.631,0.291-3.131,0.233-4.5-0.172c-1.372-0.406-2.611-1.162-3.717-2.264
	v-0.001c-1.103-1.1-2.03-2.519-2.795-4.258c-0.754-1.729-1.345-3.776-1.771-6.141l-2.555-14.329l-0.031-0.158l0.159-0.028
	l0.479-0.085l0.136-0.024l0.045,0.132c0.186,0.549,0.433,1.013,0.729,1.392c0.3,0.371,0.653,0.661,1.063,0.865
	c0.406,0.203,1.004,0.308,1.785,0.309c0.798,0.001,1.787-0.104,2.964-0.313l21.39-3.817c1.248-0.224,2.272-0.474,3.07-0.75
	c0.786-0.275,1.351-0.573,1.691-0.896c0.345-0.32,0.594-0.711,0.753-1.172c0.16-0.467,0.231-1.009,0.212-1.624l-0.007-0.139
	l0.14-0.024l0.478-0.086l0.157-0.028l0.031,0.16l2.339,13.108l0.03,0.159l-0.16,0.027l-0.479,0.085l-0.132,0.023l-0.047-0.126
	c-0.301-0.796-0.693-1.433-1.165-1.901c-0.468-0.467-1.022-0.774-1.66-0.922c-0.391-0.089-0.921-0.113-1.595-0.074
	c-0.683,0.041-1.51,0.148-2.48,0.321l-5.068,0.905c0.464,2.679,0.604,5.209,0.414,7.59c-0.191,2.432-0.729,4.714-1.605,6.839
	c-0.877,2.13-2.01,3.815-3.39,5.051C475.751,220.032,474.111,220.822,472.229,221.158L472.229,221.158z M445.862,336.558
	c0.076-0.118,0.148-0.257,0.219-0.414c0.073-0.161,0.146-0.339,0.212-0.538l0,0l0.222-0.66l1.784-6.28l0.003-0.007
	c0.509-1.502,1.071-2.891,1.683-4.16c0.61-1.272,1.275-2.428,1.985-3.464c0.832-1.211,1.751-2.304,2.757-3.27
	c1.008-0.971,2.105-1.818,3.287-2.546l0,0c1.282-0.792,2.606-1.418,3.973-1.88c1.366-0.46,2.773-0.755,4.228-0.886
	c1.451-0.133,2.901-0.106,4.354,0.074c1.452,0.179,2.908,0.519,4.367,1.012c1.166,0.396,2.271,0.888,3.309,1.479
	c1.042,0.591,2.018,1.281,2.927,2.063c0.912,0.789,1.701,1.653,2.366,2.596c0.666,0.938,1.21,1.956,1.627,3.047
	c0.415,1.089,0.715,2.205,0.893,3.35c0.179,1.145,0.239,2.313,0.179,3.505c-0.059,1.193-0.209,2.397-0.449,3.608
	c-0.234,1.209-0.563,2.433-0.98,3.668l-0.002,0.011l-2.363,5.461v0.003l-0.703,1.576c-0.083,0.239-0.138,0.465-0.167,0.674
	c-0.029,0.199-0.033,0.384-0.009,0.549c0.022,0.158,0.079,0.318,0.163,0.476c0.092,0.162,0.218,0.325,0.375,0.482l0.311,0.313
	l-0.438-0.039l-10.449-0.917l-0.145-0.012l-0.004-0.143l-0.014-0.462l-0.006-0.151l0.154-0.016c1.189-0.1,2.317-0.38,3.374-0.835
	c1.056-0.455,2.044-1.088,2.962-1.897l0,0c0.926-0.815,1.72-1.729,2.385-2.736c0.662-1.014,1.203-2.127,1.615-3.342
	c0.301-0.892,0.52-1.749,0.658-2.571c0.137-0.819,0.191-1.604,0.165-2.353c-0.028-0.743-0.16-1.485-0.392-2.227
	c-0.236-0.742-0.573-1.483-1.016-2.222c-0.444-0.739-0.954-1.432-1.526-2.076c-0.574-0.642-1.215-1.24-1.922-1.79
	c-0.706-0.549-1.452-1.036-2.233-1.453c-0.782-0.419-1.604-0.774-2.466-1.066c-2.275-0.771-4.507-1.141-6.684-1.104
	c-2.17,0.035-4.294,0.474-6.365,1.314h-0.004c-2.172,0.879-3.995,2.1-5.461,3.656c-1.464,1.56-2.576,3.46-3.334,5.702
	c-0.435,1.277-0.664,2.527-0.688,3.75c-0.026,1.221,0.153,2.412,0.535,3.58c0.38,1.173,0.928,2.297,1.635,3.374
	c0.709,1.081,1.584,2.118,2.622,3.108l0.11,0.104l-0.099,0.115l-0.378,0.441l-0.104,0.122l-0.122-0.104l-8.884-7.388l-0.112-0.094
	L445.862,336.558L445.862,336.558z M444.147,355.989c-0.283-0.327-0.549-0.628-0.799-0.897c-0.245-0.269-0.478-0.507-0.686-0.706
	l-0.003-0.002c-0.198-0.2-0.414-0.387-0.632-0.553c-0.228-0.176-0.466-0.333-0.711-0.473c-0.354-0.205-0.711-0.331-1.063-0.379
	c-0.354-0.047-0.707-0.017-1.063,0.091c-0.354,0.108-0.673,0.276-0.948,0.498c-0.272,0.226-0.511,0.508-0.707,0.85l-0.082,0.139
	l-0.138-0.079l-0.421-0.241l-0.14-0.08l0.081-0.141l5.481-9.534l0.079-0.142l0.141,0.079l0.422,0.244l0.111,0.064l-0.04,0.123
	c-0.097,0.31-0.169,0.601-0.219,0.87c-0.047,0.268-0.072,0.517-0.076,0.742c0,0.226,0.032,0.472,0.104,0.736
	c0.065,0.271,0.175,0.563,0.317,0.877c0.145,0.316,0.329,0.668,0.559,1.049c0.23,0.383,0.508,0.802,0.821,1.252l0,0
	c0.229,0.314,0.486,0.659,0.773,1.033c0.292,0.38,0.602,0.773,0.926,1.183l15.539,18.945c0.257,0.303,0.496,0.582,0.712,0.834
	c0.205,0.234,0.377,0.431,0.519,0.584l0,0c0.13,0.145,0.287,0.287,0.459,0.418v0.003c0.17,0.134,0.361,0.262,0.576,0.383l0,0
	c0.185,0.105,0.364,0.172,0.548,0.196c0.177,0.023,0.355,0.01,0.535-0.045c0.185-0.055,0.364-0.144,0.536-0.259
	c0.177-0.119,0.346-0.271,0.511-0.45l0.088-0.097l0.109,0.063l0.423,0.242l0.14,0.08l-0.081,0.142l-5.966,10.375l-0.081,0.141
	l-0.139-0.08l-0.421-0.24l-0.107-0.061l0.032-0.121c0.125-0.49,0.119-0.912-0.019-1.267c-0.139-0.351-0.407-0.646-0.811-0.877
	c-0.115-0.066-0.248-0.129-0.396-0.188c-0.146-0.06-0.305-0.113-0.478-0.161c-0.176-0.05-0.358-0.097-0.55-0.139
	c-0.188-0.044-0.386-0.083-0.593-0.12h-0.002l-27.588-5.228l0,0c-0.353-0.053-0.698-0.103-1.033-0.145
	c-0.342-0.043-0.688-0.084-1.038-0.121c-0.561-0.023-1.078,0.056-1.55,0.24c-0.475,0.182-0.903,0.474-1.29,0.865l-0.088,0.092
	l-0.108-0.063l-0.419-0.242l-0.139-0.08l0.079-0.14l6.103-10.608l0.077-0.141l0.142,0.079l0.423,0.242l0.109,0.063l-0.037,0.121
	c-0.137,0.441-0.19,0.854-0.173,1.236c0.017,0.374,0.106,0.723,0.272,1.042l0,0c0.171,0.326,0.402,0.63,0.698,0.913
	c0.297,0.285,0.656,0.552,1.082,0.794c1.129,0.648,2.396,0.988,3.813,1.021c1.421,0.03,2.987-0.25,4.702-0.84l0,0
	c1.872-0.645,3.528-1.568,4.964-2.771c1.412-1.179,2.617-2.624,3.615-4.336L444.147,355.989L444.147,355.989z M460.436,375.337
	l-8.32-10.146c-0.505,0.854-1.061,1.642-1.664,2.364c-0.651,0.78-1.369,1.492-2.146,2.137l0,0c-0.782,0.643-1.616,1.188-2.507,1.629
	c-0.683,0.339-1.396,0.618-2.141,0.838L460.436,375.337L460.436,375.337z M414.448,392.004l-6.436,6.748
	c-0.428,0.448-0.759,0.865-0.999,1.257c-0.23,0.381-0.374,0.729-0.427,1.056l0,0c-0.073,0.518,0.026,1.048,0.293,1.597
	c0.271,0.562,0.719,1.138,1.343,1.73l15.374,14.657c0.645,0.617,1.207,1.091,1.683,1.423l0,0c0.469,0.322,0.851,0.512,1.146,0.564
	l0,0c0.938,0.143,2.083-0.491,3.431-1.906c0.375-0.394,0.705-0.838,0.984-1.327c0.279-0.491,0.514-1.033,0.696-1.626
	c0.188-0.59,0.303-1.178,0.345-1.764c0.04-0.585,0.012-1.168-0.088-1.752c-0.279-1.569-0.721-3.2-1.323-4.889
	c-0.604-1.69-1.371-3.436-2.299-5.234c-1.089-2.103-2.304-4.057-3.639-5.859c-1.332-1.804-2.789-3.46-4.369-4.966
	c-0.651-0.619-1.249-1.063-1.794-1.328c-0.527-0.257-1.003-0.345-1.42-0.267h-0.004c-0.277,0.054-0.622,0.235-1.031,0.542
	C415.488,390.978,415.001,391.425,414.448,392.004L414.448,392.004z M397.404,408.372l-9.551-5.453l-0.128-0.073l0.061-0.136
	l0.222-0.464l0.063-0.139l0.146,0.061c1.355,0.558,2.685,0.924,3.98,1.104c1.29,0.177,2.549,0.161,3.772-0.044l0,0
	c1.363-0.222,2.653-0.667,3.874-1.343l0,0c1.22-0.678,2.373-1.584,3.451-2.715l10.788-11.314c1.079-1.131,1.932-2.318,2.549-3.56
	c0.617-1.237,1.004-2.528,1.157-3.873c0.147-1.261,0.101-2.535-0.137-3.829c-0.241-1.296-0.671-2.61-1.294-3.943l-0.067-0.138
	l0.138-0.071l0.451-0.241l0.133-0.068l0.08,0.126l5.903,9.276l0.146,0.23l-0.272,0.018c-0.273,0.021-0.518,0.072-0.726,0.161
	c-0.208,0.083-0.383,0.205-0.529,0.354c-0.267,0.281-0.4,0.675-0.4,1.179l0,0c0,0.525,0.146,1.171,0.438,1.934v0.003
	c0.215,0.596,0.464,1.151,0.744,1.664c0.283,0.512,0.596,0.983,0.944,1.412v0.001c1.275,1.589,2.458,3.208,3.55,4.856
	c1.086,1.646,2.086,3.33,2.994,5.042c1.163,2.181,2.138,4.337,2.929,6.472c0.792,2.138,1.396,4.256,1.815,6.348v0.004
	c0.069,0.374,0.198,0.727,0.385,1.057c0.184,0.331,0.427,0.64,0.726,0.927c0.197,0.188,0.395,0.334,0.591,0.44
	c0.192,0.103,0.382,0.167,0.572,0.192c0.185,0.021,0.377-0.005,0.578-0.079c0.203-0.08,0.42-0.212,0.643-0.396l0.107-0.092
	l0.104,0.1l0.353,0.335l0.117,0.11l-0.112,0.116l-16.369,17.171l-0.115,0.117l-0.111-0.111l-0.353-0.337l-0.103-0.097l0.083-0.111
	c0.33-0.475,0.55-0.951,0.657-1.432c0.104-0.478,0.101-0.962-0.013-1.45c-0.116-0.488-0.418-1.065-0.906-1.726
	c-0.497-0.669-1.187-1.425-2.063-2.26l-15.727-14.993c-0.604-0.574-1.184-1.049-1.733-1.424c-0.548-0.37-1.069-0.639-1.561-0.807
	c-0.479-0.161-0.904-0.218-1.271-0.164l0,0c-0.351,0.052-0.652,0.206-0.9,0.465c-0.133,0.141-0.245,0.334-0.342,0.577
	c-0.098,0.247-0.171,0.556-0.224,0.913l-0.035,0.233L397.404,408.372L397.404,408.372z M256.129,86.328
	c-0.438,0.683-0.857,1.369-1.276,2.055c-1.38,1.693-2.253,3.742-3.706,5.38l-0.061,0.229c-1.004,1.699-2.518,3.208-2.961,5.19
	c-4.28,7.542-8.756,15.064-12.423,22.938c1.44,4.373,4.365,8.094,7.544,11.356c4.92,4.517,10.77,8.345,17.438,9.572
	c-0.06-2.677,0.046-5.353-0.06-8.021c-2.269-1.773-4.666-3.423-6.811-5.373c-4.45-4.415-7.69-10.11-8.75-16.324
	c0.693-0.951,1.69-1.416,2.737-0.633c2.332,6.995,6.869,13.313,13.165,17.254c0.062-1.666,0.123-3.343-0.12-4.995
	c-0.499-3.438,0.202-6.941-0.499-10.353c-0.276-8.574-1.551-17.087-3.134-25.506l-0.13-0.176
	C258.088,87.919,256.738,87.077,256.129,86.328v-0.425V86.328L256.129,86.328z M260.26,86.962
	c3.586,14.815,4.443,30.144,4.076,45.329c2.646-2.555,5.4-5.069,7.47-8.129c0.457-0.675,1.77-2.421,2.479-3.4
	c2.117-2.898,3.724-6.166,5.355-9.357c-2.779-3.735-5.543-7.477-8.449-11.116C267.668,95.758,264.063,91.27,260.26,86.962v-0.424
	V86.962L260.26,86.962z M281.824,114.678c-3.843,8.804-10.146,16.387-17.479,22.506c0.331,4.712-0.63,9.412-0.508,14.1
	c0,0.024-0.385,3.666-0.4,3.744c-0.059,0.338-0.119,0.696-0.158,0.923c2.131-0.781,4.232-1.665,6.188-2.838
	c8.724-4.516,16.988-9.867,24.814-15.806C291.477,129.109,287.016,121.581,281.824,114.678v-0.424V114.678L281.824,114.678z
	 M226.534,144.491c4.286,11.322,14.783,20.47,27.012,21.845c1.65,0.417,3.379,0.235,5.067,0.276
	c0.89-6.329,1.103-12.726,1.778-19.068c-11.297-2.735-21.071-10.428-27.063-20.289C230.733,132.856,228.461,138.626,226.534,144.491
	v-0.424V144.491L226.534,144.491z M136.274,137.151c-9.471,3.41-18.787,7.873-26.344,14.626
	c6.216,21.905,11.036,44.176,15.546,66.479c0.444,3.108,1.146,6.162,1.799,9.229c2.373-1.314,4.975-2.164,7.328-3.504
	c0.006-1.113,0.033-2.218,0.081-3.317c7.421-2.514,15.214-3.674,22.854-5.338c1.771-0.142,0.916-2.933,2.775-3.04
	c3.364-0.654,6.795,0.062,10.16,0.357c6.775,0.957,13.509,2.317,19.968,4.59c0.708-0.708,1.421-1.422,2.13-2.145
	c10.112,1.02,20.666,2.541,29.438,8.042c-7.617-16.607-11.258-35.238-9.496-53.465c1.164-0.229,2.182-0.83,2.964-1.719
	c0.628-7.023,1.019-14.121,2.703-20.984c0.581-2.169,1.584-5.188,4.45-4.703c-0.054-0.352-0.168-1.045-0.223-1.389
	c-9.559-5.149-20.357-7.577-31.05-9.012C172.914,129.54,153.964,131.389,136.274,137.151v-0.425V137.151L136.274,137.151z
	 M300.104,133.045c0.451,1.343,2.005,1.369,3.116,1.848c2.259,6.477,1.36,13.439,2.677,20.1c5.345-0.936,10.65-2.345,16.109-2.582
	c5.26-0.768,10.563-0.196,15.808,0.412c12.972,2.142,24.742,8.85,34.7,17.214c0.977,1.309,1.784,3.249,0.889,4.806
	c-0.998,2.157-4.206,2.056-5.793,0.648c-3.048-2.556-6.246-4.92-9.586-7.085c-9.604-6.37-21.119-9.706-32.633-9.538
	c-6.006,0.385-11.979,1.187-17.851,2.474c0.289,5.494-1.385,11.015-0.305,16.486c0.822,0.331,1.652,0.682,2.481,1.025
	c0.13,0.432,0.386,1.294,0.511,1.726c-0.409,1.981-0.638,3.991-0.989,5.979c8.705-2.332,18.013-2.918,26.822-0.794
	c9.349,2.021,17.556,7.34,24.965,13.204c0.854,1.463,1.251,3.431,0.053,4.832c-0.512,0.183-1.547,0.532-2.058,0.715
	c-2.081-0.701-3.64-2.313-5.358-3.593c-4.926-3.708-10.3-6.957-16.238-8.749c-9.404-3.182-19.583-2.17-29.114-0.176
	c-2.035,12.113-6.515,23.747-12.695,34.329c6.829-2.244,13.646-4.874,20.872-5.485c3.433,0.505,7.132,1.246,9.524,4.004
	c3.627,0.215,7.219-0.486,10.853-0.264c6.789,0.31,13.482-1.192,20.245-1.355c2.925-0.135,4.059,2.973,4.684,5.284
	c3.271,0.587,6.426,1.712,9.675,2.427c0.661-5.063,1.987-10.01,2.764-15.059c4.443-21.542,9.033-43.085,15.101-64.234
	c-0.707-0.668-1.435-1.31-2.154-1.942c-1.473-1.032-2.832-2.346-4.497-3.047c-13.171-8.487-28.591-13.077-44.08-14.788
	C325.811,130.121,312.8,130.787,300.104,133.045v-0.424V133.045L300.104,133.045z M292.28,143.244
	c-1.521,0.729-2.697,1.976-4.071,2.917c-0.536,0.336-1.07,0.688-1.582,1.063c-0.32,0.232-4.137,2.752-4.147,2.757
	c-6.261,3.605-12.478,7.348-19.233,9.979c-1.05,5.736-1.029,11.643-2.357,17.336c14.223-2.581,28.124-7.96,39.476-17.06
	c-1.099-6.612-2.805-13.104-4.759-19.499C294.53,141.619,293.42,142.455,292.28,143.244v-0.426V143.244L292.28,143.244z
	 M224.457,150.349c-2.036,7.326-3.984,14.708-4.813,22.29c2.454,4.112,6.182,7.273,9.47,10.711
	c7.125,6.673,15.667,11.594,24.38,15.894c1.669-9.497,3.603-18.966,4.619-28.565c-8.176-0.081-16.333-2.872-22.832-7.846
	c-4.319-3.533-7.859-7.955-10.253-13.002L224.457,150.349v-0.425V150.349L224.457,150.349z M260.807,181.637
	c-0.162,0.337-0.492,1.011-0.657,1.354c-1.044,6.518-2.314,12.995-3.597,19.473c14.264-0.891,28.211-6.652,38.587-16.533
	c1.415-1.344,2.621-2.886,3.722-4.497c1.002-1.32,1.813-2.777,2.852-4.071c0.326-4.212-0.251-8.406-0.764-12.57
	C289.14,173.521,274.955,178.274,260.807,181.637v-0.425V181.637L260.807,181.637z M219.092,178.738
	c0.424,3.121-0.108,6.282,0.322,9.404c0.594,5.573,0.972,11.471,4.215,16.271c4.549,7.778,13.318,12.315,22.118,13.137
	c1.19,0.041,2.667,0.701,3.721,0.041c1.24-4.591,1.954-9.308,3.146-13.912c-7.726-4.268-15.315-8.837-22.307-14.256
	c-2.218-1.888-3.964-4.286-6.531-5.764l-0.014-0.33C222.104,181.899,220.561,180.351,219.092,178.738v-0.425V178.738
	L219.092,178.738z M261.648,206.011c-1.948,0.188-3.884,0.484-5.806,0.814c-2.051,7.422-3.291,15.058-5.317,22.493
	c4.988,3.356,10.896,5.164,16.864,5.628c5.675,0.035,11.366-1.766,15.969-5.089c5.382-3.879,1.388-0.483,4.814-5.369
	c8.007-11.402,11.496-25.413,12.942-39.131C291.56,197.431,276.442,203.461,261.648,206.011v-0.425V206.011L261.648,206.011z
	 M224.652,212.609c4.362,11.768,10.321,22.958,18.013,32.885c2.096-7.934,4.26-15.874,5.837-23.921
	C239.881,221.229,231.15,218.452,224.652,212.609v-0.425V212.609L224.652,212.609z M143.657,227.134
	c8.616,6.93,13.246,17.795,14.331,28.618c6.781-1.962,13.517-4.096,20.372-5.788c0.224-2.184-0.195-4.348-0.708-6.465
	c-1.906-8.729-6.613-16.709-12.902-23.004C157.341,221.311,150.385,224.081,143.657,227.134v-0.425V227.134L143.657,227.134z
	 M169.416,220.268c3.802,4.34,7.348,9.037,9.403,14.482c1.913,4.585,2.549,9.539,3.026,14.439c6.66-1.282,13.456-2.008,20.23-2.057
	c-0.304-7.084-1.442-14.241-4.888-20.546l-0.107-0.101c-0.747-1.455-1.625-2.931-3.041-3.828
	C185.904,221.316,177.693,219.921,169.416,220.268v-0.426V220.268L169.416,220.268z M200.101,224.062
	c0.579,1.516,1.315,2.966,2.051,4.415c2.676,5.823,3.194,12.335,2.938,18.657c4.933-0.215,9.822,0.229,14.729,0.722
	c8.394,1.322,16.165,5.076,23.289,9.569c-1.078-3.696-4.584-5.795-6.39-9.07l0.129-0.346l-0.764-0.033
	c-1.098-2.373-2.891-4.308-4.206-6.544c-1.84-3.282-4.745-5.812-7.825-7.899C216.846,228.705,208.358,226.379,200.101,224.062
	v-0.425V224.062L200.101,224.062z M123.46,238.741c6.034,6.41,11.479,13.608,14.644,21.893c5.573-1.151,11.196-2.164,16.604-3.99
	c-0.986-10.704-6.425-20.779-14.286-28.06C134.415,231.326,128.712,234.724,123.46,238.741v-0.425V238.741L123.46,238.741z
	 M316.095,230.633c-3.538,4.307-5.715,9.523-8.046,14.531c-3.73,9.055-6.15,18.729-6.271,28.545
	c6.485,1.03,12.978,2.069,19.468,3.041l0.636-0.312c1.825-11.062,6.601-21.448,12.327-31.004c2.743-4.437,5.817-8.708,9.675-12.253
	C334.709,231.522,325.387,230.937,316.095,230.633v-0.425V230.633L316.095,230.633z M289.166,237.487
	c-1.916,0.958-4.155,1.47-5.607,3.148c-1.453,1.537-3.199,2.742-4.797,4.105c-0.041,0.036-3.816,2.987-3.844,3.006
	c-3.274,2.051-6.409,4.361-9.891,6.051c-3.267,1.867-7.146,3.304-9.073,6.735c-0.042,0.066-0.11,0.213-0.146,0.289
	c14.051,4.055,28.003,8.485,42.214,12.01c-0.149-4.461,0.579-8.896,1.354-13.277c2.219-10.083,5.818-19.971,11.515-28.639
	C303.367,232.026,296.028,234.205,289.166,237.487v-0.423V237.487L289.166,237.487z M249.324,233.667
	c-0.896,5.223-2.514,10.291-3.769,15.435c1.2,1.936,3.028,3.403,4.242,5.345c9.389-4.285,18.651-9.389,26.21-16.5
	c-7.621,1.86-15.688,0.512-22.74-2.709C251.979,234.649,250.78,233.739,249.324,233.667v-0.425V233.667L249.324,233.667z
	 M349.028,233.956c-4.04,2.885-6.709,7.252-9.646,11.168c-6.426,9.889-11.798,20.734-13.828,32.44
	c9.142,0.493,18.323,2.542,27.484,1.151c1.234-3.241,3.097-6.175,4.858-9.146c6.232-9.658,14.077-18.313,23.285-25.215
	C370.93,239.598,360.129,236.085,349.028,233.956v-0.424V233.956L349.028,233.956z M109.404,249.067
	c4.955,3.922,9.932,8.066,12.931,13.771c4.012-0.506,8.056-0.876,12.026-1.698c-3.264-7.556-8.669-13.966-14.258-19.924
	C116.348,243.574,113.188,246.754,109.404,249.067v-0.425V249.067L109.404,249.067z M378.034,251.979
	c-2.372,1.208-3.513,3.672-5.474,5.438c-2.19,2.996-4.971,5.518-7.188,8.494c-2.895,3.735-5.307,7.809-7.728,11.863
	c8.052-1.666,15.979-4.227,24.228-4.714c5.409-6.732,11.808-13.472,20.361-15.934c-5.049-4.359-10.956-7.642-16.899-10.607
	c-0.776,0.542-1.559,1.082-2.283,1.688C382.379,248.771,378.536,251.721,378.034,251.979L378.034,251.979z M178.104,254.265
	c2.622,16.102,0.621,33.304-7.355,47.7c4.046,0.99,8.293,0.121,12.425,0.404c4.033,0.311,8.036-0.433,12.067-0.257
	c1.47-1.133,1.691-3.04,2.278-4.67c4.874-14.789,4.798-30.878,1.025-45.901C191.654,251.603,184.799,252.653,178.104,254.265v-0.425
	V254.265L178.104,254.265z M202.347,251.238c0.472,2.811,1.347,5.523,1.833,8.336c1.666,9.222,1.617,18.713,0.175,27.959
	c-0.835,4.792-2.271,9.45-4.03,13.98c0.532-0.103,1.597-0.305,2.13-0.406c4.146-0.329,8.226-1.26,12.257-2.23
	c1.319-0.465,3.229-0.488,3.639-2.148c3.606-8.763,5.678-18.151,6.229-27.608c-0.23-4.873,0.45-9.821-0.66-14.619
	c0.006-0.362,0.013-1.1,0.019-1.47C216.907,251.251,209.564,251.156,202.347,251.238v-0.425V251.238L202.347,251.238z
	 M101.438,254.957c-5.588,3.243-11.46,5.967-17.358,8.588c6.499,0.545,13.037,1.592,19.556,0.81
	c4.348,0.013,8.662-0.653,13.017-0.782c0.601,1.03,2.475,0.101,1.948-1.031c-0.275-0.889-0.733-1.219-1.375-1.005
	c-0.991-1.104-1.793-2.446-2.994-3.335c-0.613-1.375-2.083-2.049-3.154-3.021c-1.396-1.24-2.959-2.258-4.463-3.342
	C104.754,252.653,103.177,253.947,101.438,254.957v-0.423V254.957L101.438,254.957z M227.61,254.108
	c2.455,13.971,0.77,28.666-4.496,41.85c1.889-0.854,3.831-1.697,5.561-2.858c2.571-1.726,1.174-0.583,3.81-2.815
	c7.968-6.747,10.966-17.78,11.347-27.885C238.741,259.063,233.375,256.104,227.61,254.108v-0.425V254.108L227.61,254.108z
	 M151.463,261.768c0.066,3.558,0.055,7.13-0.627,10.635c-1.375,9.228-5.974,17.676-12.127,24.589
	c7.477,1.422,14.884,3.341,22.468,4.124c1.841,0.317,3.728,0.797,5.608,0.427c2.771-5.648,5.156-11.533,6.452-17.715
	c2.027-9.369,3.014-19.149,1.319-28.64C166.813,257.208,159.271,259.986,151.463,261.768v-0.427V261.768L151.463,261.768z
	 M394.061,265.599c-1.013,0.871-2.692,0.771-3.277,2.118c-0.541,0.931-1.35,1.673-1.896,2.596c-0.877,0.397-1.199,1.416-1.786,2.108
	c11.252-0.254,22.428,2.057,33.046,5.649c-2.771-6.058-7.369-10.96-11.797-15.82c-1.085-0.808-2.15-1.649-3.028-2.683
	C401.271,260.949,397.373,262.879,394.061,265.599v-0.424V265.599L394.061,265.599z M127.902,266.444
	c-1.887,4.793-5.049,8.949-8.236,12.939c-1.369,1.354-2.638,2.8-3.816,4.319c-1.064,0.997-2.123,2.003-3.141,3.048
	c5.52,3.101,11.264,5.896,17.331,7.772c1.646,0.478,3.315,1.38,5.077,0.942c0.242-0.33,0.729-1.005,0.972-1.341
	c1.138-1.313,2.229-2.665,3.383-3.963c0.343-0.781,0.774-1.538,0.99-2.368c5.021-7.305,6.99-16.271,7.705-24.984
	C141.468,264.313,134.704,265.521,127.902,266.444v-0.427V266.444L127.902,266.444z M254.402,264.979
	c-0.104,3.067,1.517,6.014,3.328,8.438c5.192,7.092,10.367,14.317,17.033,20.114c5.307,4.457,11.28,8.048,17.517,11.035
	c-4.127-6.451-7.727-13.269-10.091-20.573c-1.201-3.731-2.559-7.509-2.69-11.458C271.132,270.021,262.75,267.568,254.402,264.979
	v-0.426V264.979L254.402,264.979z M100.918,268.789c-5.285,0.148-10.537-0.466-15.789-0.911
	c7.105,6.263,14.872,11.729,22.853,16.812l0.297-0.188l-0.404,0.265c1.645,0.177,2.649-1.341,3.781-2.252
	c2.636-3.141,5.67-5.999,7.9-9.444c1.382-1.96,2.812-3.908,3.896-6.052C115.952,267.736,108.435,268.438,100.918,268.789v-0.426
	V268.789L100.918,268.789z M283.528,273.694c1.989,11.007,7.192,21.22,13.481,30.38c1.24,1.476,2.084,3.633,4.147,4.137
	c6.377,2.145,12.921,3.897,19.604,4.801c-9.25-9.994-16.936-21.812-20.429-35.083C294.68,276.716,289.124,275.131,283.528,273.694
	v-0.422V273.694L283.528,273.694z M361.233,281.588c0.547,1.819,2.663,2.857,3.831,4.384c7.544,6.489,16.145,12.086,25.737,14.969
	c4.503-3.18,7.713-7.813,12.228-10.979c4.302-3.937,9.99-5.56,15.425-7.259c-0.891-0.991-2.307-1.08-3.472-1.55
	c-8.49-2.479-17.312-4.256-26.188-4.021C379.432,277.113,370.31,279.562,361.233,281.588v-0.424V281.588L361.233,281.588z
	 M252.116,278.624c-0.147,1.49-0.364,2.997-0.075,4.489c0.646,3.553-0.113,7.178,0.364,10.75c0.514,3.304-0.202,6.68,0.453,9.975
	c0.376,2.752-0.213,5.549,0.235,8.3c0.767,14.914,1.752,29.839,3.005,44.74l0.424,0.573c13.404-8.802,29.083-14.531,45.188-15.07
	c2.951-0.716,5.902,0.188,8.869,0.176c14.366,0.979,28.246,6.536,39.744,15.117c1.271,1.018,2.532,2.075,3.959,2.881
	c2.19,2.16,4.707,3.979,6.733,6.319c1.915-14.492,4.072-28.957,5.854-43.469c0.396-1.738,0.621-3.519,0.602-5.298
	c-1.444-0.249-2.89-0.458-4.336-0.587c-0.412,0.925-0.688,1.895-0.761,2.906c-1.606,10.95-3.285,21.893-4.848,32.853
	c-2.008,9.636-8.431-2.09-17.137-7.314c-5.946-3.658-12.521-6.255-19.275-7.96c-15.651-3.995-32.503-0.796-46.586,6.781
	c-3.989,2.13-7.557,4.936-11.452,7.207c-1.514-1.571-3.397-2.718-4.848-4.343c2.225-1.409,4.28-3.065,6.593-4.345
	c14.944-9.776,33.272-14.702,51.092-12.356c10.441,1.497,20.511,5.323,29.46,10.899c2.094,1.304,4.104,2.74,6.093,4.192
	c0.481,0.354,1.253-0.938,1.438-2.071c1.135-6.941,1.844-13.979,3.274-20.873c-6.862,2.242-14.117,0.274-20.857-1.491
	c-1.869-0.396-3.958-1.61-5.785-0.524c-0.68,1.576-0.788,3.31-1.045,4.993c-3.396,0.883-6.815-0.444-9.941-1.665
	c-8.166-3.471-16.754-6.383-23.923-11.74c-0.583,1.287-1.102,2.858-2.609,3.33c-1.282,0.077-9.104-4.644-10.71-5.773
	c-5.725-4.017-11.461-8.085-16.545-12.917c-2.543-2.363-4.401-5.293-6.372-8.126c-0.64-0.921-3.397-5.207-3.679-5.711
	C253.826,281.866,252.848,280.313,252.116,278.624v-0.425V278.624L252.116,278.624z M304.83,278.807
	c1.026,4.357,3.026,8.427,5.059,12.395c4.679,8.169,10.287,15.96,17.404,22.189c2.516,1.301,5.492,0.633,8.204,1.14
	c6.735-0.17,13.531,0.432,20.203-0.722c-2.5-2.536-5.612-4.437-7.766-7.308c-6.316-6.882-11.938-14.653-15.194-23.476
	c-1.522-0.466-3.126-0.566-4.697-0.758C320.271,281.379,312.557,280.031,304.83,278.807v-0.427V278.807L304.83,278.807z
	 M336.72,283.164c4.979,10.896,12.713,20.459,21.952,28.021c0.92,0.646,1.761,1.517,2.894,1.785
	c9.115-1.482,17.886-4.727,25.933-9.214c-5.445-2.137-10.764-4.67-15.575-8.021c-1.337-0.937-2.502-2.13-3.974-2.858
	c-4.078-2.856-7.705-6.3-10.798-10.197c-2.267,0.346-4.491,1.059-6.804,0.917C345.804,283.424,341.235,283.89,336.72,283.164v-0.422
	V283.164L336.72,283.164z M129.366,301.621C129.777,301.917,129.777,301.917,129.366,301.621v-0.424V301.621L129.366,301.621z
	 M373.018,317.018c-1.618,9.813-2.605,19.729-3.914,29.597c-0.888,8.727-2.1,17.438-2.726,26.194
	c-0.142,1.971-0.95,7.868-4.253,4.984c-9.618-10.925-21.256-20.483-34.961-25.745c-9.888-3.919-20.774-4.982-31.291-3.607
	c-9.807,1.406-19.289,4.812-27.932,9.621c-1.055,0.586-3.134,1.752-3.847,2.126c-1.155,0.607-2.229,1.369-3.332,2.07
	c-1.555-1.133-2.773-2.798-4.589-3.52c0.762,4.3,0.869,8.689,1.611,13.001c4.342-4.17,9.082-7.985,14.403-10.836
	c8.962-5.115,19.307-7.428,29.56-7.619c26.278,0.314,49.228,14.196,65.991,33.812c1.913-14.276,4.093-28.519,5.872-42.802
	c1.455-9.431,2.675-18.894,4.024-28.327C376.105,316.351,374.577,316.767,373.018,317.018L373.018,317.018z M162.593,185.862
	c12-3.114,24.511-0.599,36.139,2.873c1.821,0.484,4.503,1.132,4.351,3.538c0.437,1.772-1.457,2.81-2.966,2.264
	c-6.115-1.657-12.242-3.531-18.594-4.036c-2.785-0.606-5.664-0.161-8.479-0.297c-11.488,0.256-22.098,5.911-30.633,13.272
	c-1.61,1.711-5.353,0.787-5.138-1.814c-0.153-1.691,1.152-2.871,2.347-3.814C146.502,192.577,154.092,187.934,162.593,185.862
	L162.593,185.862z M161.299,152.81c14.425-2.211,28.988,1.052,42.711,5.379c1.268,0.283,1.956,1.441,2.737,2.372
	c0.014,0.581,0.041,1.753,0.055,2.332c-1.396,3.229-5.224,1.071-7.666,0.472c-8.271-2.453-16.818-4.051-25.442-4.502
	c-10.461-0.088-21.005,2.555-29.963,8.027c-4.834,2.664-9.075,6.208-13.436,9.56c-0.957-0.021-1.916-0.015-2.865,0.021
	c-0.748-0.601-1.442-1.269-2.063-1.989c0.072-1.55,0.153-3.283,1.326-4.456C136.681,161.727,148.35,154.957,161.299,152.81
	L161.299,152.81z"/>
</svg>
