<?xml version="1.0" encoding="utf-8"?>
<!-- Generator: Adobe Illustrator 15.1.0, SVG Export Plug-In  -->
<!DOCTYPE svg PUBLIC "-//W3C//DTD SVG 1.1//EN" "http://www.w3.org/Graphics/SVG/1.1/DTD/svg11.dtd" [
	<!ENTITY ns_flows "http://ns.adobe.com/Flows/1.0/">
]>
<svg version="1.1"
	 xmlns="http://www.w3.org/2000/svg" xmlns:xlink="http://www.w3.org/1999/xlink" xmlns:a="http://ns.adobe.com/AdobeSVGViewerExtensions/3.0/"
	 x="0px" y="0px" width="842px" height="534px" viewBox="0 0 842 534" enable-background="new 0 0 842 534" xml:space="preserve">
<defs>
</defs>
<polygon fill="#219464" points="311.302,84.869 330.096,0 841.891,0 841.891,428.23 768.672,534.474 215.404,534.474 
	123.478,481.747 192.729,180.085 0,129.771 36.596,23.952 "/>
<path fill="#1A85C1" d="M701.803,244.545c1.357,4.506,2.748,9.015,4.107,13.521c4.055,13.323,15.789,22.764,15.279,33.932
	c-1.219,27.836-27.1,23.216-44.703,13.493c-23.414-12.896-66.557-32.854-84.188-51.251c-3.602-3.771-8.984-9.894-9.609-18.878
	c-2.891-42.719,105.535-46.459,119.084,9.155L701.803,244.545z"/>
<path fill="#189B59" d="M670.647,239.045c-0.793,3.771-1.133,6.151-3.713,7.599c-7.342,4.108-19.588,3.457-23.697-4.621
	c-3.373-6.661,0.822-12.613,6.719-13.125c13.381-1.161,22.934-0.51,20.691,10.177V239.045L670.647,239.045z"/>
<path fill="#53CC9A" d="M374.57,178.441c35.943-57.855,78.688-93.997,123.249-112.962l-171.521-5.98l-6.463,32.032l40.193,83.509
	c0.938,0.228,1.984,0.48,3.118,0.737l0.624,0.142l0,0c3.43,0.767,6.888,1.502,10.8,2.495V178.441L374.57,178.441z M671.329,239.188
	l-0.143,0.735c-0.736,3.543-1.219,5.813-3.883,7.313c-0.229,0.112-0.426,0.227-0.623,0.34c-3.742,1.898-8.59,2.665-13.012,1.983
	c-4.479-0.682-8.592-2.861-10.803-6.805c-0.084-0.141-0.17-0.311-0.227-0.452c-0.736-1.444-1.133-2.863-1.246-4.224
	c-0.17-1.984,0.283-3.799,1.162-5.33c0.879-1.529,2.211-2.777,3.797-3.6c1.078-0.539,2.297-0.907,3.602-1.021
	c5.867-0.51,11.025-0.651,14.824,0.198l6.322-14.627c-5.644-2.637-11.764-4.592-18.057-5.896
	c-9.439-1.956-19.275-2.409-28.434-1.502c-9.1,0.906-17.49,3.175-24.209,6.66c-9.496,4.96-15.506,12.474-14.854,22.195
	c0.256,3.997,1.616,7.342,3.289,10.147c1.729,2.862,3.824,5.188,5.525,6.975c13.492,14.088,42.775,29.338,65.99,41.441
	c6.406,3.346,12.33,6.436,17.518,9.298c6.945,3.826,15.195,6.831,22.51,7.144c3.373,0.144,6.49-0.283,9.154-1.475
	c2.521-1.134,4.68-3.005,6.207-5.781c1.502-2.75,2.468-6.379,2.664-11.057c0.229-5.441-3.203-10.886-6.887-16.725
	c-3.119-4.903-6.406-10.092-8.277-16.243l-4.109-13.521l-0.059-0.143c-3.373-13.833-13.039-23.783-25.426-30.218l-6.18,14.287
	c3.459,1.616,5.018,4.621,3.912,9.921L671.329,239.188z M669.799,239.642l0.143-0.736c1.021-4.904-0.625-7.483-4.025-8.702
	c-3.656-1.305-9.299-1.19-15.9-0.624c-1.105,0.085-2.127,0.396-3.063,0.879c-1.357,0.681-2.465,1.729-3.202,3.033
	c-0.735,1.304-1.104,2.834-0.964,4.535c0.113,1.162,0.453,2.408,1.105,3.685c0.084,0.144,0.141,0.284,0.197,0.396
	c1.982,3.516,5.697,5.472,9.779,6.096c4.139,0.623,8.646-0.085,12.16-1.843c0.197-0.113,0.396-0.198,0.597-0.313
	c2.125-1.19,2.552-3.229,3.202-6.378L669.799,239.642z M704.522,243.836l4.082,13.437c1.646,5.388,4.734,10.263,7.652,14.884
	c4.193,6.633,8.08,12.756,7.768,19.983c-0.254,5.61-1.445,10.091-3.344,13.549c-2.186,3.939-5.217,6.604-8.873,8.222
	c-2.75,1.219-5.783,1.842-8.957,1.956l6.633,159.59c93.43-73.077,116.787-160.695,98.392-236.977
	c-5.728-23.728-15.479-46.402-28.403-67.183l-123.393,11.821l-0.229,19.56C678.559,207.779,698.938,221.074,704.522,243.836z
	 M697.182,315.58c-7.428-0.906-15.336-3.883-22.053-7.596c-4.904-2.725-10.943-5.841-17.436-9.214
	c-4.705-2.467-9.666-5.046-14.713-7.737l-1.559,2.691l-5.473,19.982l-1.758,30.87c5.443,6.378,10.941,14.542,16.045,24.463
	c11.82-5.499,24.975-8.702,48.559-14.229l-1.646-39.231H697.182L697.182,315.58z M641.764,290.381
	c-12.699-6.774-25.738-14.174-36.396-21.656l-82.459-20.579c-1.135,15.336-3.23,30.416-6.688,44.899
	c25.852,12.955,48.926,20.069,68.824,26.192c11.225,3.458,21.43,6.604,30.586,10.316c5.102,2.069,11.084,6.634,17.264,13.551
	l1.672-29.479v-0.058l0.027-0.086l5.527-20.153l0.027-0.084l0.057-0.086l1.588-2.75L641.764,290.381z M594.368,260.163
	c-1.475-1.304-2.861-2.607-4.109-3.911c-1.898-1.983-4.279-4.621-6.32-7.994c-2.068-3.459-3.742-7.653-4.082-12.671
	c-0.822-12.273,6.406-21.571,17.887-27.581c5.613-2.947,12.246-5.073,19.419-6.35l0.312-14.825l-93.883,9.015
	c0.564,15.448,0.596,31.125-0.313,46.572L594.368,260.163z M619.993,201.203c1.332-0.199,2.664-0.369,4.025-0.481
	c9.354-0.937,19.361-0.511,29.027,1.36l0.195-18.681l-32.938,3.146L619.993,201.203z M332.307,318.586l39.997,10.006l-2.069-93.685
	c-2.098,0.027-4.28-0.143-6.577-0.482L332.307,318.586z M372.331,330.037l-40.534-10.119l-66.303,177.96l110.467-2.014
	L372.331,330.037z M406.631,143.264c4.054,2.578,8.105,4.139,12.132,4.875c4.536,0.821,9.042,0.651,13.55-0.199
	c1.928-3.063,4.025-5.727,6.406-8.106c8.814-8.73,21.09-13.125,39.826-17.972c0.197-0.058,0.396-0.113,0.596-0.171
	c0.17-2.153,0.369-4.279,0.539-6.405c1.162-12.699,2.691-25.115,4.73-37.105c-27.268,14.344-53.631,35.659-77.81,65.084H406.631
	L406.631,143.264z M486.028,77.329c-2.127,12.302-3.742,25.03-4.903,38.068c-0.171,1.956-0.341,3.912-0.511,5.868
	c7.514-2.381,11.338-6.096,15.223-9.836c2.521-2.438,5.018-4.875,8.531-6.974c4.336-2.607,10.148-4.677,18.822-6.094
	c8.617-1.417,20.098-2.211,35.83-2.325c3.799-0.027,6.406-0.198,9.014-0.708c2.608-0.51,5.188-1.36,8.932-2.777
	c9.807-3.714,21.854-9.581,30.301-13.721l0.256-0.143c7.598-3.714,13.861-5.104,19.418-4.849c5.584,0.284,10.432,2.239,15.107,5.244
	c0.682,0.426,1.359,0.879,2.041,1.333l18.965-8.504c-17.15-7.145-35.064-12.273-53.404-15.023
	C569.141,50.854,526.592,56.409,486.028,77.329z M649.588,84.132c6.574,4.62,13.038,9.581,19.645,14.655
	c10.688,8.221,21.713,16.696,34.156,24.351c5.557-5.499,11.623-10.855,18.539-16.3c-15.959-12.698-33.42-23.471-51.873-31.89
	L649.588,84.132z M723.063,107.744c-13.211,10.347-23.33,20.466-32.656,31.635c-9.213,11.027-17.631,23.074-27.467,37.39
	l113.131-10.856c-11.453-17.405-25.145-33.393-40.563-47.509c-4.025-3.687-8.164-7.229-12.416-10.658L723.063,107.744
	L723.063,107.744z M661.096,176.938c10.146-14.77,18.766-27.155,28.205-38.466c4.139-4.933,8.42-9.666,13.039-14.314
	c-12.389-7.653-23.357-16.072-33.986-24.236c-6.803-5.243-13.465-10.347-20.297-15.081l-128.125,57.458
	c1.357,15.336,2.664,31.465,3.398,47.877l137.736-13.209L661.096,176.938z M642.586,81.1c-0.428-0.282-0.852-0.539-1.275-0.821
	c-4.508-2.892-9.127-4.763-14.428-5.018c-5.33-0.256-11.367,1.104-18.738,4.705l-0.254,0.144
	c-8.447,4.139-20.523,10.034-30.416,13.747c-3.826,1.446-6.463,2.324-9.156,2.836c-2.691,0.537-5.385,0.708-9.297,0.736
	c-15.648,0.112-27.043,0.906-35.604,2.323c-8.505,1.39-14.146,3.402-18.341,5.925c-3.373,2.04-5.84,4.422-8.275,6.774
	c-4.082,3.969-8.139,7.909-16.328,10.347c-0.822,10.432-1.418,21.063-1.814,31.833l163.9-73.502L642.586,81.1z M477.27,161.434
	c-6.662,16.725-6.094,17.973,3.572,32.797l38.295-3.686c-0.707-15.901-1.955-31.521-3.287-46.432l-38.607,17.319L477.27,161.434
	L477.27,161.434z M479.254,194.4c-9.41-14.457-10.119-16.215-3.855-32.117l-77.017,34.525c0.511,1.39,0.905,2.807,1.188,4.225
	c0.059,0.313,0.113,0.651,0.171,0.992l79.483-7.625H479.254z M477.241,155.253c0.396-10.828,0.992-21.543,1.813-32.06l-0.143,0.027
	c-18.48,4.791-30.586,9.1-39.176,17.604c-2.381,2.354-4.479,5.017-6.377,8.106l0.027,0.197l-0.197,0.029
	c-4.508,7.397-7.881,17.178-10.914,30.698l54.938-24.633L477.241,155.253z M420.689,180.623c3.005-13.55,6.321-23.499,10.688-31.096
	c-4.281,0.681-8.563,0.766-12.843,0c-4.252-0.766-8.504-2.409-12.782-5.159c-8.787,10.8-17.291,22.647-25.455,35.66
	c7.198,2.494,12.331,6.688,15.563,11.734L420.689,180.623z M261.95,349.625c3.345,11.765,5.584,22.563,7.001,33.817
	c1.53,12.019,2.184,24.52,2.323,39.288c0,1.021,0.058,1.813,0.085,2.466c0.113,1.758,0.17,2.636-0.624,5.356
	c-4.903,17.148-4.479,30.048-3.911,46.94l0.027,0.624l36.51-97.994c-14.739-8.532-28.544-18.708-41.441-30.5L261.95,349.625
	L261.95,349.625z M265.579,481.606c-0.058-1.39-0.085-2.722-0.143-4.055c-0.566-17.035-1.021-30.02,3.969-47.365
	c0.708-2.495,0.681-3.288,0.567-4.904c-0.028-0.651-0.085-1.444-0.085-2.551c-0.143-14.686-0.794-27.156-2.325-39.118
	c-1.531-11.878-3.912-23.272-7.625-35.858c-6.436-6.038-12.671-12.473-18.651-19.305c-18-20.551-33.932-44.758-47.991-72.566
	l-49.209,215.491l115.567,26.135l5.926-15.874V481.606L265.579,481.606z M193.776,253.701
	c14.174,28.347,30.331,52.979,48.559,73.813c18.34,20.977,38.834,38.099,61.54,51.277l54.256-145.644l-9.694-2.608
	c-2.069-0.566-3.6-0.936-4.933-1.247c-10.913-2.607-11.792-2.834-10.941-18.481c0.17-3.117,0.567-6.181,1.19-9.24L212.74,170.616
	L193.776,253.701z M698.883,356.258c-23.33,5.472-36.342,8.675-47.99,14.062c0.85,1.7,1.699,3.458,2.551,5.271
	c8.814,19.136,15.932,43.824,18.34,73.445l32.063,26.816L698.883,356.258z M670.25,447.761
	c-2.521-28.828-9.494-52.865-18.111-71.574c-0.822-1.813-1.672-3.544-2.523-5.243c-11.193,5.386-21.457,13.065-38.891,27.069
	l59.525,49.775V447.761z M609.618,397.077c17.633-14.201,28.008-21.938,39.348-27.41c-11.143-21.629-24.236-34.896-33.902-38.807
	c-9.129-3.688-19.305-6.832-30.473-10.263c-19.871-6.123-42.891-13.209-68.74-26.136c-1.162,4.733-2.494,9.41-3.969,14.003
	c-0.598,1.813-1.191,3.601-1.814,5.387L609.618,397.077z M504.596,327.487l0.48,0.793c11.143,18.198,16.611,27.185,17.49,45.128
	c0.113,2.521,0.17,4.62,0.229,6.378c0.111,4.024,0.17,6.208,0.904,8.221c0.852,2.382,2.723,4.705,6.746,9.751
	c0.34,0.396,0.652,0.822,1.844,2.297c6.037,7.625,13.891,16.327,22.563,23.441c6.688,5.5,13.861,10.063,21.063,12.444
	c24.745,8.221,38.978,8.021,62.077,7.682c5.527-0.085,11.537-0.17,18.342-0.142L508.024,319.493
	c-1.076,2.692-2.182,5.386-3.398,7.994H504.596L504.596,327.487z M657.979,444.898c-7.484-0.028-14.061,0.057-20.014,0.142
	c-23.271,0.341-37.561,0.538-62.531-7.768c-2.637-0.878-5.244-2.013-7.824-3.401c-17.375,3.346-12.813,30.784-9.354,51.394
	c0.426,2.552,0.82,5.018,1.188,7.313l94.904-1.729l46.828-9.863l-43.172-36.113L657.979,444.898z M557.973,492.605
	c-0.34-2.239-0.738-4.621-1.162-7.115c-3.43-20.579-7.967-47.764,8.928-52.64c-4.053-2.324-8.021-5.159-11.848-8.277
	c-8.73-7.199-16.668-15.959-22.763-23.669l-1.845-2.296L529,398.24l-5.781,2.691l-0.059,0.027l-0.057,0.028
	c-7.426,2.211-13.266,3.601-18.906,4.45c-5.612,0.851-11.026,1.162-17.574,1.274c-2.495,0.059-5.159,0.085-7.938,0.113
	c-3.063,0.028-6.209,0.085-9.355,0.143l39.855,86.542l48.729-0.879L557.973,492.605z M463.237,407.083
	c-3.543,0.113-6.889,0.255-9.893,0.511c-3.486,0.283-6.746-0.511-10.461-2.238c-3.262-1.53-6.83-3.799-11.195-6.746
	c-14.91,6.32-32.117,10.97-51.931,13.635l1.842,83.565l121.437-2.212l-39.826-86.515H463.237L463.237,407.083z M433.274,397.928
	c3.969,2.664,7.258,4.733,10.234,6.122c3.484,1.646,6.52,2.354,9.75,2.1c2.807-0.229,6.01-0.368,9.354-0.481l-8.646-18.766
	c-6.352,4.054-13.238,7.737-20.693,10.998L433.274,397.928L433.274,397.928z M468.766,405.524c3.346-0.059,6.719-0.113,9.979-0.144
	c2.75-0.026,5.414-0.057,7.908-0.111c6.438-0.113,11.793-0.427,17.377-1.275c5.557-0.822,11.338-2.183,18.682-4.394l5.414-2.523
	c-3.287-4.166-4.904-6.321-5.756-8.646c-0.82-2.211-0.879-4.479-0.99-8.646c-0.059-1.729-0.113-3.771-0.229-6.351
	c-0.852-17.573-6.266-26.446-17.264-44.446c-9.979,21.401-24.49,40.194-45.156,54.709l10.035,21.798V405.524L468.766,405.524z
	 M459.809,279.212l-1.9,16.413c3.434,13.267,6.605,22.875,10.434,32.201c3.602,8.815,7.822,17.434,13.406,28.771
	c9.811-11.963,17.234-25.455,22.82-39.97l-44.73-37.389L459.809,279.212z M480.729,357.761
	c-5.727-11.595-10.006-20.382-13.721-29.425c-3.74-9.154-6.859-18.51-10.205-31.294l-25.822,26.477l25.879,56.238
	c9.156-6.52,17.066-13.89,23.84-21.996H480.729z M426.274,326.834l-47.793,27.015l1.191,54.087
	c29.903-4.082,53.656-12.784,72.453-24.976L426.274,326.834z M378.453,352.233l47.228-26.675l-42.888-93.117
	c-2.129,0.906-4.451,1.587-6.945,2.013l2.579,117.809L378.453,352.233z M430.354,322.129l26.137-26.815l2.014-17.206l-64.629-54.027
	c-0.113,0.143-0.229,0.284-0.342,0.425c-1.614,1.956-3.544,3.713-5.727,5.217l42.547,92.438V322.129z M461.479,273.23l0.283-4.848
	c0.936-16.214,1.531-25.937,3.26-34.668l-67.038-16.724c-0.312,0.765-0.652,1.53-1.049,2.268l64.517,53.944L461.479,273.23z
	 M466.327,228.217c2.125-7.795,5.5-15.73,11.313-27.978l-77.612,7.427c-0.057,1.305-0.227,2.607-0.454,3.883L466.327,228.217z
	 M479.254,200.069c-5.98,12.557-9.41,20.606-11.564,28.487l51.363,12.813c0.85-14.995,0.793-30.16,0.254-45.127L479.254,200.069z
	 M466.411,234.057c-1.729,8.674-2.295,18.313-3.229,34.384c-0.113,1.898-0.229,3.854-0.34,5.896l0.025,0.029
	c9.326,0.084,18.514-1.191,27.525-3.912c9.354-2.835,18.51-7.257,27.467-13.353c0.34-3.315,0.625-6.661,0.854-10.006
	L466.411,234.057z M517.635,258.916c-8.759,5.84-17.744,10.092-26.873,12.869c-8.588,2.606-17.35,3.912-26.22,3.997l42.036,35.148
	c0.428-1.247,0.852-2.522,1.275-3.771c4.932-15.279,8.021-31.551,9.809-48.218L517.635,258.916z M511.284,60.293
	c32.996-11.424,66.699-13.833,99.127-8.985c47.852,7.144,92.895,30.074,128.836,62.958c35.914,32.882,62.73,75.771,74.1,122.882
	c19.357,80.276-6.123,172.658-107.773,248.4l-0.51,0.367l-0.625,0.145l-49.236,10.373l-0.227,0.058h-0.285l-391.492,7.087
	l-5.556-0.736L140.062,476.25l-2.777-0.623l0.624-2.75l69.335-303.647L4.31,117.297l1.871-5.386l328.961,84.189
	c1.162-3.854,2.721-7.683,4.677-11.423c5.697-10.856,7.285-12.587,13.067-11.425l-38.551-80.106l-0.396-0.852l0.198-0.936
	l7.114-35.319l0.48-2.354l2.381,0.085l187.229,6.521L511.284,60.293L511.284,60.293z M359.462,229.124l3.854-13.465l-26.362-7.059
	c-0.085,0.821-0.142,1.645-0.17,2.467c-0.65,12.132-0.026,12.302,7.684,14.145c1.56,0.369,3.345,0.794,5.046,1.248l9.979,2.665
	L359.462,229.124L359.462,229.124z M364.082,212.938l4.169-14.542l-26.873-7.199c-1.051,2.466-1.929,4.988-2.607,7.482
	c-0.652,2.323-1.134,4.705-1.474,7.059l26.813,7.172L364.082,212.938z M369.015,195.675l3.799-13.294
	c-3.571-0.878-6.774-1.587-9.978-2.296l0,0l-0.624-0.142c-2.383-0.539-4.424-1.077-6.151-1.531
	c-6.633-1.786-7.229-1.928-12.529,8.191c-0.34,0.651-0.68,1.305-0.99,1.956l26.476,7.086L369.015,195.675L369.015,195.675z
	 M379.844,212.485l6.123,13.294c1.613-1.162,3.03-2.522,4.278-3.997c1.476-1.786,2.664-3.742,3.571-5.812l-13.946-3.486
	L379.844,212.485L379.844,212.485z M395.434,210.529c0.511-2.863,0.48-5.813-0.057-8.675c-0.229-1.104-0.512-2.211-0.906-3.287
	l-14.315,6.405c0.028,0.112,0.028,0.228,0.059,0.34c0.085,0.481,0.111,0.964,0.111,1.444L395.434,210.529z M391.861,193.521
	c-2.863-4.167-7.342-7.652-13.578-9.666l-3.883,13.605c1.304,0.681,2.354,1.502,3.203,2.467L391.861,193.521z M369.639,214.129
	c2.691,0.085,4.763-0.878,6.095-2.408c0.709-0.795,1.19-1.759,1.502-2.777c0.284-1.021,0.369-2.126,0.198-3.204
	c-0.313-2.069-1.561-4.082-3.826-5.472L369.639,214.129z M365.019,230.314c6.208,0.822,11.563,0.058,16.016-1.785l-5.896-12.784
	c-1.729,0.937-3.826,1.389-6.293,1.163L365.019,230.314z"/>
</svg>
