<?xml version="1.0" encoding="utf-8"?>
<!-- Generator: Adobe Illustrator 15.1.0, SVG Export Plug-In . SVG Version: 6.00 Build 0)  -->
<!DOCTYPE svg PUBLIC "-//W3C//DTD SVG 1.1//EN" "http://www.w3.org/Graphics/SVG/1.1/DTD/svg11.dtd">
<svg version="1.1" id="Layer_1" xmlns="http://www.w3.org/2000/svg" xmlns:xlink="http://www.w3.org/1999/xlink" x="0px" y="0px"
	 width="500px" height="321.477px" viewBox="0 0 500 321.477" enable-background="new 0 0 500 321.477" xml:space="preserve">
<path fill="#FFFFFF" d="M232.64,0.382c41.713-1.824,83.835,2.838,123.843,14.958c30.571,9.328,60.044,23.082,85.506,42.561
	c19.614,15.125,36.857,33.998,47.443,56.572c8.952,18.896,12.56,40.388,9.495,61.116c-2.521,17.858-9.798,34.835-19.963,49.652
	c-9.871,14.433-22.38,26.929-36.13,37.673c-15.736,12.174-33.11,22.14-51.281,30.21c-24.883,11.028-51.259,18.52-78.07,23.095
	c-40.977,6.852-83.07,7.006-124.096,0.47c-37.917-6.141-75.168-18.134-108.388-37.631c-14.383-8.55-28.015-18.475-39.981-30.201
	c-13.27-12.966-24.62-28.132-31.975-45.23c-6.173-14.202-9.386-29.726-9.015-45.222c0.349-18.234,5.752-36.192,14.695-52.033
	c10.708-19.09,26.091-35.229,43.357-48.534c28.503-21.773,61.949-36.378,96.453-45.651C180.033,5.406,206.287,1.545,232.64,0.382
	 M235.17,4.147c-33.79,1.313-67.498,6.983-99.572,17.782c-30.993,10.477-60.731,25.765-85.42,47.439
	c-14.396,12.736-26.933,27.847-35.387,45.185C7.7,129.149,3.649,145.329,3.903,161.595c0.036,17.356,4.938,34.522,13.17,49.738
	c11.627,21.593,29.373,39.33,49.177,53.522c30.001,21.366,64.841,35.192,100.576,43.507c42.918,9.797,87.556,11.676,131.211,6.235
	c26.544-3.412,52.771-9.626,77.794-19.161c20.66-7.925,40.561-18.067,58.522-31.038c13.551-9.754,26.015-21.131,36.293-34.323
	c11.898-15.234,20.769-33.115,24.014-52.265c3.507-19.877,0.62-40.682-7.545-59.093c-9.857-22.394-26.498-41.226-45.588-56.255
	c-27.666-21.719-60.355-36.337-94.101-45.742C310.972,6.687,272.929,2.717,235.17,4.147 M231.771,7.637
	c40.596-1.892,81.604,2.417,120.639,13.89c33.686,9.975,66.226,25.349,93.182,48.141c17.551,14.954,32.563,33.518,40.841,55.214
	c5.015,13.098,7.363,27.241,6.544,41.258c-0.919,17.871-7.033,35.246-16.47,50.375c-9.753,15.687-22.769,29.165-37.311,40.47
	c-16.872,13.171-35.753,23.634-55.477,31.871c-26.494,11.062-54.55,18.171-82.972,22.041c-40.094,5.345-81.047,4.372-120.801-3.132
	c-19.692-3.784-39.099-9.188-57.771-16.515c-17.393-6.849-34.211-15.298-49.707-25.784c-20.371-13.753-38.795-31.114-51.137-52.558
	c-7.992-13.858-13.197-29.444-14.243-45.452c-1.335-18.181,2.783-36.56,10.957-52.793c8.232-16.47,20.262-30.812,34.007-42.964
	c24.344-21.312,53.662-36.301,84.188-46.611C167.048,14.783,199.349,9.158,231.771,7.637 M231.785,9.447
	c-25.15,1.19-50.205,4.852-74.563,11.26c-31.02,8.223-61.143,20.828-87.47,39.352C50.134,73.972,32.47,91.382,21.074,112.758
	c-7.803,14.546-12.369,30.929-12.405,47.475c-0.108,15.049,3.489,30.033,9.952,43.598c4.598,9.693,10.563,18.714,17.419,26.951
	c10.36,12.473,22.806,23.071,36.093,32.291c31.364,21.37,67.638,34.69,104.672,42.234c43.267,8.585,88.044,9.4,131.623,2.634
	c25.403-4.027,50.439-10.707,74.204-20.593c21.022-8.766,41.126-20.021,58.8-34.458c14.025-11.479,26.553-25.032,35.604-40.805
	c10.653-18.248,16.034-39.777,13.804-60.891c-1.164-11.844-4.566-23.434-9.758-34.133c-9.84-20.534-25.64-37.678-43.498-51.558
	c-25.149-19.438-54.485-32.897-84.822-41.995C313.638,11.896,272.503,7.574,231.785,9.447 M248.213,31.628
	c2.666-5.277,4.502-10.957,7.268-16.18c2.584,5.313,4.716,10.835,7.246,16.171c0.339,1.054,1.493,1.308,2.177,2.037
	c-2.403,0.077-4.861,0.308-7.232-0.145c0.692-0.276,1.479-0.375,2.109-0.814c0.031-1.693-1.027-3.159-1.539-4.725
	c-2.326-0.019-4.652,0.031-6.975-0.05c-0.732,1.507-1.515,3.064-1.52,4.784c0.656,0.267,1.334,0.539,1.923,0.955
	c-1.905,0.122-3.833,0.195-5.729-0.082C246.811,33.077,247.806,32.619,248.213,31.628 M251.599,26.862
	c2.072,0.005,4.146-0.004,6.218,0c-0.977-2.462-2.077-4.87-3.091-7.318C253.657,21.97,252.626,24.414,251.599,26.862 M228.173,16.67
	c1.896-0.072,3.811-0.443,5.707-0.122c-0.896,0.484-2.566,0.593-2.326,1.991c0.009,3.648,0.489,7.282,0.665,10.925
	c0.123,1.172,0.027,2.467,0.657,3.512c0.629,0.362,1.375,0.412,2.063,0.634c-2.467,0.914-5.259,0.584-7.861,0.71
	c0.765-0.416,1.584-0.724,2.335-1.177c0.425-2.317-0.055-4.707-0.258-7.033c-0.466,0.022-0.932,0.045-1.394,0.068
	c-1.955,2.865-3.893,5.739-5.811,8.626c-1.571,0.177-3.15,0.281-4.725,0.213c1.041-0.562,2.168-1.095,2.824-2.136
	c1.589-2.254,3.209-4.49,4.752-6.78c-1.254-0.28-2.625-0.412-3.652-1.263c-1.978-1.457-2.068-4.856-0.077-6.345
	C223.055,16.878,225.752,16.888,228.173,16.67 M222.887,19.902c-0.566,1.476-0.317,3.48,1.1,4.395
	c1.498,1.059,3.426,0.855,5.155,0.869c-0.159-2.426-0.258-4.861-0.58-7.273C226.54,17.553,223.91,17.874,222.887,19.902
	 M268.117,16.494c2.752,0.086,5.526,0.153,8.242,0.647c-0.852,0.285-1.725,0.484-2.58,0.738c-0.661,2.362-0.562,4.843-0.797,7.264
	c2.326-1.928,4.906-3.58,7.006-5.766c1.182-1.263-0.887-1.625-1.638-2.2c2.557,0.072,5.123,0.231,7.666,0.557
	c-1.335,0.475-2.847,0.629-3.938,1.616c-2.072,1.702-4.091,3.471-6.132,5.209c2.421,2.942,4.756,5.951,7.264,8.825
	c0.724,0.928,1.838,1.367,2.838,1.928c-2.974-0.186-5.983-0.154-8.916-0.742c0.797-0.28,1.625-0.457,2.448-0.652
	c-1.357-3.109-3.901-5.49-6.082-8.024c-0.376,0.498-0.711,1.045-0.684,1.697c-0.113,1.801-0.462,3.625-0.182,5.422
	c0.539,0.796,1.62,0.959,2.395,1.48c-2.706-0.037-5.476-0.045-8.124-0.661c0.946-0.416,2.575-0.213,2.697-1.602
	c0.529-3.629,0.553-7.318,0.915-10.97c0.026-1.164,0.321-2.399-0.109-3.512C269.697,17.231,268.864,16.924,268.117,16.494
	 M205.676,18.074c1.131,1.212,1.806,2.747,2.647,4.159c2.096,3.661,4.159,7.345,6.313,10.97c0.521,1.041,1.666,1.435,2.584,2.032
	c-2.281,0.303-4.584,0.443-6.865,0.751c-0.032-0.127-0.1-0.385-0.131-0.516c0.547-0.136,1.095-0.267,1.647-0.394
	c0.095-1.851-1.254-3.294-1.987-4.878c-2.335,0.244-4.67,0.479-7.006,0.729c-0.344,1.584-1.299,3.204-0.855,4.847
	c0.697,0.258,1.426,0.394,2.145,0.597c-1.901,0.606-3.915,0.602-5.883,0.747c2.086-1.172,2.525-3.625,3.218-5.708
	C202.911,26.971,204.173,22.486,205.676,18.074 M205.503,22.196c-0.801,2.512-1.566,5.033-2.331,7.558
	c2.06-0.194,4.109-0.448,6.173-0.62C208.106,26.799,206.803,24.5,205.503,22.196 M298.245,18.716
	c0.123-0.023,0.376-0.068,0.498-0.091c1.376,4.164,2.508,8.405,3.812,12.595c0.755,2.268,0.968,5.078,3.308,6.341
	c-2.439-0.222-4.942-0.271-7.296-1.005c0.675-0.362,1.843-0.041,2.259-0.801c-0.063-1.611-0.638-3.15-1.081-4.685
	c-2.354-0.181-4.676-0.629-7.033-0.737c-0.711,1.489-1.915,2.869-1.811,4.621c0.633,0.276,1.281,0.566,1.837,1.005
	c-1.954-0.032-3.883-0.357-5.807-0.638c1.005-0.521,2.104-1.023,2.68-2.064C292.643,28.505,295.254,23.491,298.245,18.716
	 M297.313,22.432c-1.34,2.231-2.68,4.467-3.893,6.771c2.036,0.253,4.073,0.516,6.119,0.684
	C298.771,27.41,298.2,24.871,297.313,22.432 M186.093,21.332c2.639-0.521,5.295-1.019,7.983-1.186
	c-0.706,0.453-1.476,0.814-2.146,1.326c-0.208,0.865-0.041,1.761,0.077,2.629c0.58,3.44,1.118,6.893,1.67,10.337
	c0.177,0.77,0.245,1.639,0.801,2.25c0.742,0.371,1.616,0.375,2.412,0.606c-2.598,0.715-5.291,1.063-7.97,1.281
	c0.683-0.661,2.181-0.801,2.172-1.955c-0.027-2.231-0.611-4.413-0.901-6.617c-2.679,0.344-5.34,0.814-8.011,1.208
	c0.362,2.186,0.534,4.421,1.15,6.558c0.344,1.046,1.575,0.864,2.439,0.996c0.013,0.104,0.036,0.308,0.045,0.412
	c-2.58,0.367-5.137,1.027-7.757,1.009c0.674-0.389,1.385-0.706,2.041-1.127c0.416-0.697,0.199-1.57,0.149-2.34
	c-0.525-3.358-1.104-6.712-1.607-10.074c-0.19-0.973-0.258-2.014-0.792-2.878c-0.751-0.453-1.666-0.476-2.494-0.729
	c2.629-0.579,5.3-1.032,7.988-1.24c-0.701,0.479-1.471,0.851-2.158,1.344c-0.294,2.322,0.52,4.621,0.796,6.92
	c2.647-0.443,5.304-0.819,7.952-1.253c-0.38-2.268-0.398-4.666-1.349-6.78C187.776,21.717,186.917,21.576,186.093,21.332
	 M311.854,20.965c4.951,0.864,9.93,1.693,14.804,2.892c-1.059,0.339-2.715,0.027-2.996,1.453c-0.701,2.539-1.055,5.164-1.61,7.735
	c-0.35,2.118-1.032,4.2-1.023,6.358c0.524,0.57,1.263,0.851,1.888,1.29c-0.086,1.466-0.345,2.915-0.702,4.335
	c-0.954-1.077-0.466-2.792-1.538-3.811c-1.24-1.1-2.996-1.149-4.54-1.498c-2.118-0.303-4.204-1.05-6.358-0.905
	c-1.711,0.221-2.362,1.955-3.182,3.218c-0.625-1.439,0.39-2.938,0.629-4.372c1.091-0.253,2.259-0.584,2.951-1.548
	c2.244-2.774,2.802-6.427,3.525-9.812c0.186-1.181,0.625-2.385,0.371-3.584C313.52,21.93,312.583,21.554,311.854,20.965
	 M315.479,23.785c-1.235,4.603-1.349,9.889-4.802,13.55c2.467,0.417,4.906,0.978,7.391,1.317c1.104-4.797,1.946-9.654,2.942-14.474
	c-1.335-0.539-2.762-0.851-4.183-0.996C316.295,23.151,315.579,23.102,315.479,23.785 M330.207,23.93
	c0.447,0.421,0.859,0.887,1.366,1.249c1.661,0.149,3.367-0.172,4.997,0.299c2.964,0.715,5.621,2.937,6.458,5.924
	c0.973,3.575-0.154,7.744-2.91,10.251c-3.987,3.471-10.821,2.204-13.668-2.127c-0.349-0.48-0.484-1.023-0.398-1.625
	c1.227,1.086,2.104,2.58,3.566,3.394c2.24,1.118,5.178,1.426,7.269-0.181c1.747-1.227,2.566-3.277,3.154-5.246
	c-2.063-0.416-4.113-1.217-6.241-1.082c-0.724,0.643-1.263,1.448-1.923,2.146c0.435-2.213,0.624-4.585,1.715-6.594
	c0.371,0.959,0.022,2.539,1.199,3.005c1.77,0.702,3.671,0.959,5.518,1.385c0.823-2.806-0.182-6.078-2.748-7.599
	c-2.136-1.367-5.276-1.055-6.946,0.905c-0.647,0.666-1.091,1.584-2.01,1.919C329.075,27.931,329.709,25.948,330.207,23.93
	 M157.295,27.596c2.584-0.932,5.317-1.43,8.024-1.874c-0.738,0.765-2.43,1.022-2.268,2.34c0.235,1.951,0.837,3.838,1.263,5.757
	c2.272-0.611,4.68-1.408,7.042-0.801c2.344,0.597,4.195,3.014,3.661,5.476c-0.683,2.43-3.186,3.698-5.462,4.259
	c-2.743,0.652-5.485,1.34-8.264,1.815c0.643-0.882,2.394-1.063,2.032-2.421c-0.575-3.517-1.588-6.942-2.326-10.427
	c-0.344-1.29-0.471-2.711-1.313-3.797C158.902,27.741,158.087,27.718,157.295,27.596 M164.563,34.837
	c0.611,2.39,0.928,4.883,1.815,7.196c1.453,0.493,3.046-0.29,4.322-0.978c2.788-1.656,1.521-6.685-1.67-6.947
	C167.505,33.973,166.021,34.461,164.563,34.837 M149.094,29.962c1.829-0.484,3.621-1.131,5.503-1.403
	c-0.792,0.76-2.494,1.285-1.928,2.666c0.846,3.612,2.073,7.12,3.032,10.704c0.367,1.023,0.511,2.258,1.353,3.028
	c0.738,0.199,1.521,0.108,2.281,0.172c-2.299,1.354-5.078,1.733-7.658,2.335c0.57-0.512,1.231-0.914,1.833-1.389
	c0.317-0.829-0.032-1.733-0.199-2.558c-1.168-4.068-2.376-8.128-3.571-12.188c-1.638,0.154-3.241,0.62-4.775,1.195
	c-0.756,0.23-0.719,1.068-0.529,1.679c1.009,3.843,2.435,7.599,2.964,11.555c0.258,1.439-0.19,3.24-1.679,3.824
	c-1.032,0.407-2.593,0.814-3.322-0.308c-0.543-0.688-0.294-1.58-0.227-2.367c0.729-0.086,1.543-0.511,2.231-0.041
	c0.258,0.479,0.452,0.991,0.588,1.53c0.244-0.005,0.733-0.023,0.982-0.027c0.652-3.354-0.715-6.648-1.512-9.857
	c-0.529-1.656-0.801-3.426-1.638-4.964c-0.656-1-2.009-0.611-3-0.811C142.826,31.542,146.017,30.917,149.094,29.962 M348.514,29.112
	c1.833,0.317,3.553,1.036,5.336,1.548c0.552,4.897,1.153,9.789,1.706,14.686c3.331-3.63,6.58-7.332,9.902-10.971
	c1.634,0.552,3.317,0.959,4.919,1.621c-0.018,0.955-2.072-0.195-2.407,0.874c-1.01,1.883-1.421,4.014-2.168,6.005
	c-0.814,2.761-2.041,5.422-2.435,8.292c0.661,0.475,1.402,0.905,1.778,1.67c-2.548-0.828-5.204-1.417-7.612-2.616
	c0.878-0.118,1.833,0.095,2.661-0.263c0.761-0.9,1.036-2.082,1.431-3.172c1.1-3.34,2.181-6.685,3.326-10.016
	c-3.905,4.168-7.626,8.513-11.645,12.573c-0.738-5.295-1.118-10.636-1.896-15.926c-1.268,3.788-2.685,7.549-3.68,11.418
	c-0.534,1.466,1.06,2.086,1.941,2.865c-2.271-0.407-4.611-0.996-6.607-2.177c1.055-0.1,2.606,0.321,3.141-0.933
	c1.417-3.132,2.227-6.49,3.403-9.712c0.385-1.398,1.2-2.869,0.774-4.34C349.763,30.049,349.093,29.641,348.514,29.112
	 M126.357,36.597c1.562,1.064,2.711,2.589,4.042,3.906c2.838,2.901,5.589,5.879,8.458,8.749c0.724,0.869,1.878,0.937,2.915,1.104
	c-2.19,1.136-4.575,1.855-6.933,2.552c0.493-0.701,1.874-1.082,1.539-2.109c-0.81-1.285-1.978-2.29-2.982-3.417
	c-2.2,0.788-4.385,1.602-6.589,2.358c0.059,1.598-0.458,3.367,0.326,4.847c0.751,0.118,1.516,0.113,2.276,0.181
	c-1.756,0.955-3.675,1.566-5.612,2.045c0.701-0.769,1.471-1.588,1.512-2.697C125.886,48.292,125.845,42.427,126.357,36.597
	 M127.189,40.703c-0.108,2.606-0.276,5.209-0.38,7.816c1.928-0.656,3.852-1.335,5.77-2.019
	C130.928,44.436,129.022,42.599,127.189,40.703 M373.89,37.276c2.684,0.955,5.449,1.842,7.925,3.272
	c-0.883-0.054-1.761-0.23-2.639-0.149c-0.774,0.466-1.01,1.461-1.398,2.222c-1.439,3.612-3.019,7.169-4.395,10.799
	c-0.811,1.58,1.032,2.281,1.896,3.195c-2.792-0.765-5.471-1.928-8.082-3.163c1.1-0.39,2.543,0.765,3.249-0.534
	c1.23-2.204,1.955-4.648,2.996-6.947c0.851-2.294,2.122-4.467,2.503-6.915C375.211,38.521,374.464,37.987,373.89,37.276
	 M238.795,40.354c40.524-1.172,81.458,3.996,119.856,17.27c16.772,5.875,33.038,13.347,48.027,22.933
	c13.311,8.607,25.729,18.891,35.478,31.472c8.83,11.215,15.348,24.503,17.47,38.7c2.503,15.94-0.905,32.505-8.653,46.575
	c-10.296,18.813-26.697,33.531-44.561,45.019c-21.249,13.413-44.701,23.188-68.964,29.625c-18.813,4.982-38.116,8.006-57.509,9.477
	c-43.013,3.2-86.787-0.385-128.157-12.93c-17.945-5.503-35.423-12.714-51.653-22.182c-16.03-9.391-30.988-21.058-42.434-35.808
	c-8.834-11.287-15.342-24.647-17.384-38.922c-2.109-13.916,0.258-28.362,6.173-41.099c7.449-16.175,19.778-29.644,33.672-40.573
	c13.55-10.667,28.775-19.044,44.579-25.869C160.739,48.781,199.819,41.599,238.795,40.354 M189.482,47.894
	c-25.141,4.422-49.888,11.672-72.951,22.692c-15.722,7.585-30.703,16.963-43.583,28.807c-13.134,12.188-24.218,27.35-28.667,44.932
	c-3.358,12.912-2.733,26.771,1.575,39.379c4.142,12.319,11.519,23.331,20.298,32.821c5.942,6.408,12.586,12.147,19.624,17.32
	c0.222-0.227,0.448-0.448,0.674-0.666c3.634-0.777,6.979-2.737,10.595-3.443c40.52,10.486,82.319,15.266,124.07,17.058
	c25.924,0.996,51.902,0.76,77.789-0.946c35.256-2.398,70.521-7.146,104.546-16.922c0.448-0.176,0.882,0.082,1.308,0.222
	c3.068,1.245,6.105,2.566,9.183,3.802c-21.442,8.087-43.909,13.116-66.502,16.714c-20.547,3.249-41.284,5.164-62.048,6.21
	c-46.783,2.117-93.855,0.004-140.073-7.73c-19.633-3.403-39.188-7.707-58.021-14.283c-0.317,0.162-0.638,0.33-0.95,0.502
	c4.503,3.046,8.957,6.188,13.681,8.894c2.005,1.086,3.815,2.625,6.074,3.163c15.252,3.975,30.685,7.246,46.235,9.821
	c43.76,7.25,88.284,9.717,132.583,7.78c36.048-1.779,72.146-6.382,106.871-16.451c1.453-0.344,2.729-1.136,4.015-1.861
	c10.898-6.218,21.34-13.347,30.604-21.841c8.346-7.608,15.754-16.329,21.394-26.137c6.884-12.002,10.739-25.905,9.961-39.786
	c-0.647-13.676-5.621-26.941-13.242-38.238c-7.658-11.563-17.732-21.357-28.752-29.702c-14.446-10.813-30.536-19.294-47.276-25.956
	c-18.171-7.241-37.144-12.374-56.378-15.872C271.661,41.033,229.966,40.933,189.482,47.894 M140.749,262.148
	c27.87,9.88,57.219,15.243,86.691,17.121c24.009,1.462,48.167,0.625,71.992-2.711c17.985-2.552,35.817-6.439,53.068-12.147
	c-3.71,0.493-7.372,1.313-11.061,1.919c-42.552,6.993-85.927,8.296-128.912,5.387c-22.212-1.58-44.353-4.318-66.208-8.595
	C144.469,262.765,142.631,262.313,140.749,262.148 M108.104,45.115c2.267-1.408,4.815-2.313,7.282-3.309
	c-0.606,0.91-2.208,1.643-1.489,2.919c1.385,3.395,3,6.689,4.476,10.047c0.507,1.041,0.887,2.227,1.81,2.996
	c0.815,0.032,1.629-0.054,2.444-0.072c-1.303,0.937-2.847,1.425-4.286,2.095c-1.014,0.412-2.01,1.05-3.141,0.969
	c0.638-0.67,2.132-1.113,1.688-2.304c-0.611-2.114-1.747-4.033-2.593-6.06c-2.534,0.951-4.974,2.123-7.463,3.177
	c1.15,2.177,1.733,4.738,3.439,6.567c0.824,0.032,1.643-0.091,2.467-0.136c-2.34,1.367-4.87,2.543-7.499,3.213
	c0.552-0.521,1.163-0.982,1.688-1.53c0.245-0.819-0.226-1.634-0.498-2.39c-1.353-3.023-2.774-6.015-4.096-9.056
	c-0.417-0.905-0.801-1.847-1.439-2.625c-0.706-0.702-1.743-0.059-2.598-0.09c0.892-0.987,2.25-1.258,3.399-1.829
	c1.249-0.489,2.421-1.299,3.797-1.372c-0.575,0.543-1.244,1.005-1.729,1.643c0.299,2.313,1.738,4.286,2.53,6.449
	c2.543-0.91,4.965-2.123,7.458-3.154c-1-2.096-1.679-4.395-3.123-6.241C109.788,44.92,108.941,45.088,108.104,45.115
	 M383.692,49.754c-1.082-2.385,0.797-5.603,3.453-5.711c2.276-0.24,4.408,0.788,6.444,1.661c1.77,0.837,3.675,1.435,5.305,2.553
	c-0.737-0.041-1.471-0.068-2.199-0.077c-0.706,0.285-0.95,1.082-1.3,1.683c-1.584,3.399-3.091,6.834-4.652,10.242
	c-0.285,0.751-0.732,1.525-0.57,2.354c0.512,0.57,1.118,1.05,1.675,1.579c-2.639-0.593-5.019-1.991-7.481-3.073
	c1.082-0.24,2.612,0.498,3.223-0.765c1.032-1.77,1.743-3.698,2.625-5.54c-0.326-0.163-0.969-0.493-1.294-0.656
	c-3.142,1.607-6.214,3.34-9.351,4.952c-1.398-0.611-2.814-1.195-4.132-1.969c1.163-0.104,2.407-0.018,3.457-0.629
	c2.489-1.245,4.965-2.516,7.454-3.765C385.376,51.745,384.168,51.012,383.692,49.754 M387.639,46.138
	c-1.113,0.955-1.806,2.584-1.385,4.037c0.697,1.878,2.692,2.647,4.291,3.594c0.973-1.96,1.914-3.938,2.733-5.961
	c0.303-0.534,0.009-1.1-0.525-1.321C391.237,45.635,389.187,45.038,387.639,46.138 M86.652,56.502
	c2.616-1.842,5.395-3.476,8.255-4.911c-0.494,0.892-1.837,1.774-1.141,2.888c1.502,2.806,3.309,5.444,4.915,8.196
	c0.914,1.408,1.629,3.001,2.928,4.114c0.814-0.023,1.621-0.158,2.43-0.258c-2.245,1.421-4.435,3.132-6.997,3.919
	c0.557-0.661,1.263-1.217,1.656-1.996c-0.765-2.231-2.29-4.087-3.431-6.132c-0.434,0.23-0.864,0.461-1.299,0.692
	c-0.443,3.448-0.778,6.911-1.222,10.364c-1.313,0.732-2.589,1.524-3.933,2.204c0.516-0.996,1.263-1.915,1.372-3.069
	c0.407-2.747,0.747-5.499,1.177-8.236c-2.186,0.801-5.209,1.027-6.499-1.349C83.244,60.751,84.634,57.855,86.652,56.502
	 M87.485,57.407c-1.892,2.086,0.149,5.825,2.865,5.685c1.602-0.027,2.992-0.932,4.386-1.62c-1.331-2.014-2.331-4.268-3.929-6.087
	C89.467,55.515,88.372,56.466,87.485,57.407 M187.097,58.579c25.114-5.413,50.933-7.309,76.581-6.196
	c22.643,1.068,45.208,4.494,67.004,10.767c25.123,6.983,49.042,19.149,68.316,36.854c3.354,3.136,6.694,6.336,9.563,9.934
	c2.774-0.598,5.517-1.316,8.287-1.928c0.823-0.213,1.67-0.009,2.484,0.158c4.783,1.046,9.586,2.001,14.374,3.001
	c0.031,26.919,0.018,53.834,0.018,80.753c0.141,4.001-2.529,7.399-5.499,9.781c-5.187,4.131-11.377,6.725-17.537,9.037
	c-13.319,4.779-27.218,7.689-41.13,10.106c-20.801,3.611-41.818,5.807-62.863,7.322c-47.801,3.142-95.887,2.417-143.521-2.747
	c-19.325-2.276-38.641-5.05-57.527-9.802c-5.974-1.518-11.894-3.272-17.664-5.45c-5.748-2.235-11.514-4.752-16.347-8.652
	c-2.784-2.268-5.368-5.382-5.408-9.147c0-27.055,0.004-54.115,0-81.174c5.033-1.064,10.074-2.114,15.111-3.169
	c1.059-0.28,2.123,0.055,3.154,0.295c2.467,0.61,4.947,1.194,7.432,1.747c1.715-2.417,3.906-4.44,5.938-6.581
	c11.88-11.813,25.86-21.425,40.859-28.833C154.023,67.128,170.474,62.208,187.097,58.579 M173.402,64.028
	c-15.568,4.218-30.775,10.056-44.642,18.352c-12.604,7.437-24.263,16.574-34.088,27.444c-0.729,0.594-0.598,1.58-0.684,2.417
	c-0.113,2.082-0.262,4.164-0.28,6.255c0.588-0.34,1.217-0.652,1.684-1.163c4.978-5.35,10.767-9.894,16.858-13.917
	c14.713-9.586,31.155-16.197,47.928-21.203c23.331-6.87,47.535-10.491,71.793-11.74c23.131-1.1,46.38-0.072,69.275,3.444
	c21.819,3.399,43.457,8.775,63.75,17.597c14.654,6.463,28.987,14.604,39.954,26.471c0.353-0.009,1.067-0.031,1.425-0.045
	c-0.004-2.508,0.046-5.015,0.023-7.521c-10.682-11.926-23.598-21.729-37.546-29.526c-17.207-9.735-36.242-15.728-55.468-19.995
	c-20.919-4.558-42.339-6.744-63.741-6.775C223.951,54.148,198.204,57.253,173.402,64.028 M233.197,88.526
	c0.018,9.481-0.009,18.963,0.018,28.444c11.16-1.022,22.402-1.032,33.563,0.014c0.108-9.481,0.131-18.972-0.01-28.454
	C255.581,88.187,244.385,88.105,233.197,88.526 M226.005,88.856c-0.022,9.617-0.009,19.23-0.004,28.843
	c1.258-0.091,2.516-0.222,3.774-0.366c0.009-9.536,0.004-19.067,0.004-28.599C228.517,88.757,227.259,88.803,226.005,88.856
	 M270.258,88.743c0.05,9.531-0.013,19.063,0.032,28.59c1.24,0.149,2.484,0.294,3.725,0.475c0.031-9.631,0.005-19.266,0.018-28.896
	C272.77,88.848,271.512,88.784,270.258,88.743 M206.033,90.423c0.022,10.413,0.018,20.823,0,31.236
	c2.268-0.438,4.485-1.081,6.748-1.543c0.086-10.11,0.041-20.226,0.022-30.336C210.545,89.983,208.292,90.232,206.033,90.423
	 M287.239,89.848c0.026,10.098-0.046,20.198,0.036,30.296c2.249,0.479,4.476,1.072,6.725,1.57
	c-0.049-10.387,0.163-20.796-0.104-31.174C291.692,90.196,289.452,90.11,287.239,89.848 M177.548,94.5
	c0.018,11.912,0.014,23.829,0.005,35.745c1.443,0.239,3.041,1.262,4.435,0.335c3.969-2.037,8.105-3.733,12.296-5.26
	c-0.022-11.151,0.005-22.307-0.014-33.463C188.672,92.577,183.11,93.532,177.548,94.5 M305.79,91.943
	c-0.022,11.143-0.022,22.289-0.005,33.432c4.472,1.598,8.803,3.558,13.08,5.612c1.222-0.077,2.398-0.489,3.593-0.751
	c-0.004-11.867,0.019-23.738-0.013-35.604C316.905,93.645,311.357,92.727,305.79,91.943 M171.864,95.604
	c0,11.124-0.005,22.254,0.004,33.378c0.982,0.176,1.969,0.366,2.956,0.534c0.009-11.486,0.004-22.978,0.004-34.464
	C173.837,95.229,172.85,95.414,171.864,95.604 M325.251,95.184c-0.027,11.469-0.014,22.937-0.005,34.405
	c0.974-0.249,1.965-0.462,2.951-0.701c0-11.034,0.014-22.072-0.009-33.111C327.201,95.582,326.224,95.383,325.251,95.184
	 M156.037,99.339c-0.032,8.616-0.009,17.238-0.009,25.855c1.765,0.403,3.53,0.823,5.286,1.276c0.172-9.495,0.068-19,0.014-28.499
	C159.572,98.46,157.807,98.913,156.037,99.339 M338.656,98.202c-0.014,9.382-0.009,18.769-0.005,28.151
	c1.811-0.326,3.603-0.761,5.396-1.204c-0.019-8.518-0.027-17.035,0-25.558C342.254,99.099,340.458,98.628,338.656,98.202
	 M136.359,105.665c0.027,4.956,0.032,9.912,0,14.872c3.426,0.851,6.87,1.647,10.31,2.443c0.018-6.924-0.009-13.849,0.018-20.772
	C143.152,103.059,139.753,104.385,136.359,105.665 M353.393,102.312c-0.019,6.884-0.027,13.768,0,20.651
	c3.403-0.787,6.788-1.661,10.21-2.367c0.1-4.901,0.018-9.807,0.045-14.709C360.254,104.62,356.832,103.443,353.393,102.312
	 M132.521,107.068c-0.032,4.2-0.045,8.399,0.009,12.6c0.656,0.145,1.312,0.304,1.969,0.471c0.041-4.594,0.013-9.188,0.022-13.781
	C133.856,106.593,133.187,106.833,132.521,107.068 M365.553,106.603c-0.04,4.498-0.022,8.997-0.005,13.5
	c0.657-0.163,1.317-0.321,1.982-0.476c0.05-4.05,0.01-8.105,0.019-12.16C366.879,107.177,366.214,106.888,365.553,106.603
	 M408.512,111.816c-0.145,2.402-0.072,4.815-0.122,7.223c-0.684-0.041-1.358-0.086-2.027-0.136
	c-0.1,24.249-0.077,48.507-0.01,72.761c3.743-0.072,7.486,0.014,11.233-0.026c-0.05-27.314,0.127-54.632-0.091-81.939
	C414.509,110.444,411.513,111.146,408.512,111.816 M82.434,191.556c3.779-0.104,7.563,0.036,11.342-0.072
	c-0.063-24.127-0.032-48.254-0.018-72.381c-0.733-0.063-1.471-0.127-2.204-0.182c0.149-2.316,0.285-4.63,0.403-6.946
	c-3.177-0.774-6.368-1.512-9.549-2.268C82.416,136.988,82.357,164.274,82.434,191.556 M121.691,112.047
	c-0.005,1.688-0.014,3.372,0,5.06c1.217,0.29,2.444,0.575,3.666,0.86c0-2.566-0.004-5.128-0.004-7.694
	C124.121,110.848,122.904,111.444,121.691,112.047 M374.709,110.635c-0.009,2.435-0.014,4.87,0,7.305
	c1.217-0.294,2.435-0.575,3.661-0.855c0-1.525-0.005-3.051,0.018-4.571C377.18,111.848,375.944,111.241,374.709,110.635
	 M113.169,116.962c-1.014,0.729-2.105,1.435-3.403,1.43c-0.082,24.372-0.009,48.752-0.037,73.128c1.865,0.005,3.729-0.005,5.594,0
	c-0.005-24.671-0.027-49.345,0.009-74.02C114.612,117.314,113.893,117.134,113.169,116.962 M384.729,117.446
	c0.019,24.729-0.004,49.458,0.014,74.187c1.842-0.01,3.693-0.01,5.544-0.01c0.014-24.435,0-48.864,0.01-73.294
	c-1.485,0.145-2.883-0.263-4.011-1.236C385.761,117.201,385.24,117.319,384.729,117.446 M98.605,118.292
	c-0.037,24.412,0.018,48.825-0.027,73.232c0.928,0.009,1.86-0.01,2.788,0.009c0.031-24.407-0.027-48.82,0.031-73.228
	C100.465,118.292,99.537,118.288,98.605,118.292 M106.796,118.283c-0.027,24.398-0.004,48.798-0.009,73.195
	c0.506,0.019,1.018,0.027,1.529,0.041c0.027-24.408-0.009-48.811,0.019-73.218C107.824,118.297,107.308,118.288,106.796,118.283
	 M233.206,118.79c-0.004,24.24-0.014,48.485,0.004,72.729c2.177,0,4.354,0.005,6.531,0c0.022-8.722-0.018-17.442,0.022-26.159
	c6.838-0.732,13.758-0.778,20.597,0.005c-0.005,8.725-0.009,17.447,0,26.168c2.146,0.009,4.286,0.004,6.431,0
	c0.137-11.197,0.019-22.394,0.06-33.591c-0.041-13.052,0.072-26.104-0.06-39.152C255.626,117.768,244.375,117.754,233.206,118.79
	 M391.784,118.22c-0.167,5.104-0.036,10.215-0.076,15.324c0.054,19.375-0.113,38.75,0.085,58.12
	c0.484-0.014,0.979-0.026,1.472-0.041c0.009-24.42-0.019-48.847,0.018-73.268C392.775,118.302,392.277,118.256,391.784,118.22
	 M398.687,118.283c-0.005,24.448-0.022,48.896,0.009,73.345c0.914-0.005,1.838,0,2.761,0.01c0.018-24.449,0-48.897,0.009-73.341
	C400.537,118.288,399.609,118.283,398.687,118.283 M121.682,119.017c0.032,24.181-0.077,48.362,0.054,72.544
	c1.204-0.032,2.408-0.036,3.612-0.046c0.014-23.892,0.009-47.788,0.004-71.684C124.13,119.541,122.913,119.256,121.682,119.017
	 M226.005,119.632c-0.022,23.964-0.018,47.933,0,71.896c1.254-0.004,2.512-0.004,3.77-0.009
	c-0.009-24.127,0.045-48.254-0.027-72.381C228.499,119.293,227.254,119.46,226.005,119.632 M374.704,119.804
	c0.022,23.946-0.036,47.893,0.027,71.838c1.208-0.019,2.416-0.022,3.63-0.031c0.014-24.227,0.026-48.453-0.005-72.676
	C377.139,119.233,375.917,119.523,374.704,119.804 M270.285,119.17c-0.027,24.118,0.009,48.236-0.022,72.358
	c1.249,0.014,2.498,0.014,3.747,0.032c0.041-23.978,0.01-47.951,0.019-71.929C272.779,119.479,271.53,119.311,270.285,119.17
	 M132.453,121.546c0.1,23.326,0.022,46.656,0.041,69.982c0.675-0.009,1.354-0.022,2.032-0.036
	c-0.014-23.172,0.014-46.344-0.014-69.511C133.833,121.786,133.123,121.75,132.453,121.546 M365.553,121.958
	c-0.036,23.227-0.014,46.448-0.014,69.67c0.661-0.009,1.331-0.014,2.001-0.014c0.031-23.38,0.022-46.761,0.004-70.145
	C366.875,121.633,366.214,121.796,365.553,121.958 M206.047,123.529c-0.009,22.665,0.018,45.325-0.014,67.99
	c2.268-0.005,4.53,0.031,6.798-0.031c-0.027-23.19,0.022-46.376-0.023-69.563C210.559,122.475,208.314,123.058,206.047,123.529
	 M287.239,191.556c2.23,0.01,4.462,0.005,6.698,0.014c0.172-22.665,0.045-45.339,0.059-68.004c-2.249-0.48-4.49-1.015-6.698-1.64
	C287.167,145.135,287.275,168.343,287.239,191.556 M136.377,122.43c0,23.03-0.005,46.067,0,69.099
	c3.435-0.067,6.879,0.095,10.314-0.095c-0.059-22.203,0.036-44.411-0.05-66.615C143.211,124.067,139.798,123.217,136.377,122.43
	 M353.383,124.814c0.01,22.267-0.04,44.538,0.022,66.805c3.413-0.032,6.83-0.005,10.242-0.005c0-23.072-0.005-46.14,0.005-69.208
	C360.227,123.198,356.81,124.018,353.383,124.814 M156.033,127.067c-0.014,21.488-0.027,42.973,0.009,64.461
	c1.76-0.009,3.525-0.004,5.295-0.009c0.149-10.59-0.022-21.186,0.059-31.775c-0.1-10.486,0.086-20.977-0.068-31.463
	C159.553,127.91,157.797,127.471,156.033,127.067 M305.795,127.299c-0.046,21.421-0.005,42.841-0.022,64.262
	c5.553,0.009,11.11,0.005,16.668,0.022c0.036-19.818,0.027-39.637,0.005-59.451c-1.603,0.223-3.331,1.254-4.865,0.308
	C313.787,130.431,309.768,128.896,305.795,127.299 M338.62,128.339c0.067,21.081,0.009,42.167,0.027,63.248
	c1.788,0.01,3.58,0.005,5.372,0.01c0.018-21.529,0.022-43.054-0.005-64.583C342.218,127.462,340.407,127.869,338.62,128.339
	 M182.399,132.395c-1.511,0.991-3.258-0.022-4.852-0.226c0.023,19.786,0.009,39.568,0.009,59.355
	c5.553,0.013,11.111-0.051,16.668,0.041c0.118-21.439,0.018-42.878,0.05-64.316C190.265,128.847,186.219,130.371,182.399,132.395
	 M171.864,130.797c-0.005,20.239,0,40.483,0,60.728c0.986-0.01,1.978,0,2.969-0.015c-0.009-20.008-0.004-40.017-0.004-60.024
	C173.837,131.255,172.855,131.014,171.864,130.797 M325.246,131.408c-0.014,20.053-0.022,40.103,0.005,60.157
	c0.973,0.013,1.946,0.031,2.924,0.045c0.059-20.267-0.005-40.538,0.031-60.809C327.215,130.982,326.232,131.214,325.246,131.408
	 M160.843,193.634c-19.95,5.733-39.945,11.3-59.88,17.075c4.118,1.316,8.35,2.249,12.496,3.48
	c17.791-6.92,35.568-13.867,53.341-20.823C164.817,193.393,162.78,193.099,160.843,193.634 M333.736,193.43
	c17.719,6.68,35.338,13.622,53.02,20.401c4.105-0.973,8.215-1.909,12.324-2.873c-19.605-5.834-39.284-11.41-58.903-17.198
	C338.1,193.058,335.878,193.366,333.736,193.43 M159.866,198.036c19.302,2.096,38.705,3.055,58.098,3.92
	c29.386,1.412,58.843,0.892,88.203-0.878c11.504-0.738,22.968-2.01,34.445-3.104c-2.716-0.824-5.255-2.747-8.2-2.317
	c-54.907,4.929-110.248,4.86-165.159,0.05C164.618,195.619,162.323,197.29,159.866,198.036 M140.278,205.713
	c27.091,3.733,54.418,5.354,81.722,6.503c25.485,1.041,51.01,0.548,76.468-0.973c20.737-1.127,41.46-2.802,62.043-5.612
	c-2.733-0.95-5.354-2.227-8.128-3.028c-43.696,5.083-87.782,6.545-131.74,5.272c-23.566-0.796-47.132-2.222-70.557-5.027
	c-0.882-0.068-1.815-0.34-2.661,0.041C145.03,203.807,142.641,204.726,140.278,205.713 M128.751,210.184
	c-2.874,1.06-5.68,2.295-8.576,3.295c18.709,3.417,37.627,5.553,56.572,7.137c23.493,1.929,47.041,3.517,70.625,3.598
	c24.027,0.128,48.027-1.357,71.964-3.285c20.47-1.616,40.913-3.879,61.12-7.581c-2.765-1.091-5.539-2.158-8.313-3.23
	c-0.95-0.479-2.01-0.186-2.996-0.041c-20.542,3.34-41.303,5.061-62.035,6.712c-11.146,0.792-22.284,1.692-33.449,2.113
	c-23.837,1.146-47.738,0.411-71.521-1.435c-23.58-1.77-47.195-3.543-70.566-7.255C130.643,210.111,129.665,209.826,128.751,210.184
	 M411.155,54.642c1.416,0.493,2.588,1.448,3.837,2.259c0.964,0.651,2.046,1.199,2.738,2.172c-0.797-0.194-1.574-0.583-2.403-0.502
	c-1.692,1.602-2.773,3.72-4.113,5.603c2.285,1.408,4.485,2.951,6.734,4.422c1.104-1.693,2.362-3.286,3.362-5.046
	c0.806-1.154-0.625-2.086-1.1-3.037c2.321,1.362,4.725,2.72,6.685,4.58c-0.852-0.14-1.697-0.76-2.562-0.489
	c-1.132,0.9-1.819,2.204-2.643,3.363c-1.86,2.788-3.889,5.467-5.645,8.318c-0.855,1.181,0.48,2.163,1.077,3.068
	c-1.516-0.538-2.765-1.565-4.104-2.417c-0.896-0.602-1.91-1.117-2.462-2.086c0.783,0.181,1.565,0.742,2.398,0.493
	c1.783-1.629,2.864-3.852,4.322-5.757c-2.25-1.494-4.472-3.042-6.775-4.453c-1.136,1.778-2.503,3.417-3.512,5.277
	c-0.77,1.186,0.598,2.123,1.1,3.086c-2.294-1.398-4.815-2.652-6.676-4.616c0.833,0.149,1.639,0.692,2.508,0.529
	c1.335-1.181,2.181-2.778,3.213-4.209c1.692-2.521,3.521-4.96,5.114-7.544C413.11,56.475,411.766,55.533,411.155,54.642
	 M71.242,66.604c2.227-1.811,4.553-3.517,7.011-4.997c-0.466,0.76-1.059,1.444-1.462,2.245c0.063,0.905,0.688,1.629,1.177,2.349
	c1.869,2.525,3.756,5.037,5.603,7.577c0.666,0.891,1.313,1.828,2.218,2.497c0.991,0.019,1.905-0.452,2.855-0.679
	c-0.801,0.938-1.819,1.644-2.833,2.322c-1.403,0.937-2.666,2.108-4.236,2.774c0.462-0.828,1.217-1.508,1.484-2.435
	c-0.14-0.883-0.751-1.585-1.235-2.3c-2.005-2.684-4.005-5.372-5.974-8.083c-0.561-0.801-1.271-1.489-2.118-1.991
	C72.912,66.155,72.088,66.431,71.242,66.604 M58.787,75.583c2.045-1.856,4.345-3.48,6.771-4.793
	c-0.439,0.905-1.806,1.706-1.294,2.838c0.918,1.778,2.308,3.258,3.439,4.901c1.951-1.376,3.874-3.028,6.3-3.44
	c1.887-0.122,4.019,0.634,4.942,2.399c0.9,1.402,0.647,3.244-0.235,4.593c-1.276,2.028-3.367,3.3-5.268,4.671
	c-1.407,0.955-2.702,2.104-4.281,2.788c0.448-0.725,0.959-1.407,1.443-2.104c-1.72-3.113-4.109-5.788-6.146-8.694
	c-1.004-1.276-1.81-2.761-3.132-3.752C60.448,74.927,59.638,75.429,58.787,75.583 M68.44,79.334c1.417,2.092,2.788,4.3,4.589,6.074
	c2.223-0.625,4.711-3.001,3.915-5.518c-0.602-1.353-1.706-2.806-3.304-2.91C71.577,76.683,70.011,78.289,68.44,79.334
	 M421.089,80.113c5.521-2.422,10.604-5.757,16.144-8.133c-1.367,5.779-3.331,11.404-4.725,17.175
	c-0.381,1.019,0.244,1.964,0.538,2.905c-1.987-1.466-4.096-2.86-5.748-4.716c0.733,0.254,1.439,0.565,2.159,0.874
	c1.032-1.408,1.34-3.154,1.896-4.771c-1.665-1.344-3.309-2.72-5.023-3.987c-0.494-0.479-1.096-0.05-1.566,0.186
	c-1.122,0.57-2.177,1.271-3.077,2.154c0.362,0.692,0.746,1.381,1.086,2.091c-1.629-1.104-3.2-2.308-4.607-3.679
	C419.129,80.299,420.17,80.615,421.089,80.113 M426.918,78.442c1.611,1.295,3.236,2.571,4.848,3.87
	c0.765-2.53,1.497-5.073,2.276-7.599C431.652,75.927,429.294,77.198,426.918,78.442 M50.464,84.503
	c1.467-2.218,3.675-3.843,5.531-5.726c-0.222,0.766-0.552,1.498-0.729,2.281c0.086,0.725,0.702,1.227,1.15,1.747
	c2.562,2.557,5.168,5.069,7.73,7.626c0.656,0.634,1.321,1.299,2.186,1.643c0.71-0.149,1.303-0.588,1.937-0.914
	c1.059,0.964,2.145,1.901,3.204,2.874c-1.123,0.715-2.15-0.851-3.34-0.706c-2.34,0.031-3.657,2.331-5.268,3.693
	c-2.611,2.357-4.838,5.173-7.712,7.218c0.335-0.669,0.715-1.321,1.023-2.004c-0.023-0.743-0.679-1.259-1.109-1.797
	c-2.557-2.571-5.196-5.064-7.748-7.635c-0.693-0.639-1.362-1.376-2.268-1.702c-0.837,0.122-1.553,0.634-2.345,0.905
	c1.661-2.096,3.662-3.91,5.68-5.662c-0.285,0.792-0.647,1.557-0.883,2.362c0.602,1.227,1.679,2.118,2.63,3.068
	c2.552,2.449,5.028,4.992,7.612,7.409c0.457,0.493,1.032-0.136,1.385-0.435c1.589-1.529,3.146-3.096,4.698-4.666
	c-2.182-2.53-4.729-4.711-7.065-7.097c-1.29-1.213-2.43-2.652-4.019-3.498C51.949,83.742,51.225,84.163,50.464,84.503
	 M447.229,81.376c1.548,1.402,2.874,3.027,4.318,4.539c1.448,1.629,3.1,3.276,3.606,5.48c0.864,2.639-2.186,5.676-4.793,4.661
	c-0.719-0.198-1.335-0.66-1.914-1.1c0.448,1.204,1.204,2.35,1.113,3.693c-0.045,2.606-2.955,4.526-5.403,3.869
	c-2.48-0.516-4.051-2.701-5.703-4.421c-1.439-1.716-3.186-3.182-4.349-5.11c0.823,0.407,1.593,0.924,2.39,1.386
	c2.679-1.702,4.838-4.073,7.277-6.083c1.438-1.412,3.263-2.517,4.336-4.254C448.176,83.086,447.47,82.263,447.229,81.376
	 M449.846,86.639c-1.679,1.263-3.209,2.721-4.721,4.173c1.354,1.358,2.635,3.109,4.639,3.472c1.367-0.059,2.544-1.127,3.214-2.259
	c0.761-1.706-0.394-3.443-1.471-4.702C451.113,86.879,450.475,86.078,449.846,86.639 M439.047,96.206
	c-0.479,0.408,0.168,1.005,0.385,1.386c1.182,1.412,2.824,2.928,4.815,2.62c1.616-0.479,3.286-1.974,3.005-3.811
	c-0.33-1.955-1.733-3.485-2.95-4.965C442.591,93.074,440.663,94.478,439.047,96.206 M461.056,97.008
	c1.508,2.172,3.196,4.245,4.386,6.616c-0.765-0.493-1.476-1.063-2.204-1.593c-1.67,1.57-2.543,3.743-3.774,5.639
	c-0.756,1.435-1.847,2.707-2.407,4.228c1.529-0.982,3.493-0.715,5.223-1.141c2.067-0.493,4.453-0.213,6.223-1.57
	c-0.28-0.692-0.552-1.38-0.792-2.086c1.639,1.484,2.706,3.462,3.878,5.309c-1.208-0.575-2.407-1.498-3.823-1.227
	c-4.988,0.61-9.948,1.421-14.936,2c-2.254,0.316-4.453-1.457-4.905-3.616c-0.245-1.249,1.561-2.113,2.357-1.117
	c0.806,0.882,0.177,2.081,0.05,3.086c1.181,0.833,3.439,1.177,4.101-0.448c1.973-3.417,4.027-6.793,6.001-10.21
	C461.201,99.728,461.133,98.324,461.056,97.008 M36.239,107.068c-0.792-1.258-1.814-2.407-2.267-3.843
	c5.983,0.919,11.898,2.286,17.886,3.182c1.009,0.268,1.837-0.457,2.693-0.859c-1.118,2.182-2.489,4.309-4.223,6.051
	c0.222-0.729,0.471-1.448,0.724-2.163c-1.543-0.851-3.322-1.177-5.055-1.326c-1.403,1.811-2.571,3.783-3.919,5.63
	c0.941,1.276,1.675,2.774,3,3.711c0.788-0.176,1.439-0.696,2.154-1.054c-0.991,1.646-1.978,3.335-3.331,4.716
	c0.122-1.082,0.163-2.227-0.521-3.146C41.141,114.242,38.615,110.703,36.239,107.068 M36.932,106.136
	c1.48,2.204,2.933,4.436,4.431,6.635c1.167-1.674,2.349-3.34,3.435-5.064C42.182,107.149,39.548,106.679,36.932,106.136
	 M26.17,118.266c0.312-0.63,0.443-1.417,1.036-1.86c0.022,0.77-0.072,1.529-0.14,2.294c1.792,1.358,4.01,1.884,6.037,2.771
	c2.815,1.063,5.549,2.349,8.436,3.204c0.692-0.603,1.358-1.231,2.078-1.797c-1.037,2.407-1.602,5.15-3.25,7.219
	c0.072-0.67,0.19-1.34,0.244-2.014c-0.29-0.802-1.149-1.109-1.851-1.439c-1.67-0.706-3.367-1.335-5.046-2.01
	c-1.023,2.444-1.978,4.915-3.064,7.332c1.941,0.842,3.892,1.684,5.911,2.34c1.28,0.565,2.023-0.842,2.951-1.431
	c-0.521,1.589-1.227,3.105-1.829,4.662c-0.366,0.851-0.597,1.833-1.389,2.407c0.072-0.634,0.176-1.268,0.222-1.9
	c-0.158-0.883-1.131-1.127-1.811-1.489c-3.553-1.452-7.142-2.81-10.694-4.268c-0.733-0.213-1.53-0.666-2.304-0.412
	c-0.593,0.521-1.082,1.154-1.629,1.725c0.761-2.539,1.68-5.101,3.083-7.358c0.122,0.937-0.598,2.316,0.489,2.873
	c1.855,1.036,3.928,1.602,5.856,2.48c1.109-2.439,2.069-4.942,3.109-7.409c-1.955-0.706-3.824-1.634-5.82-2.222
	c-1.286-0.479-1.829,1.067-2.639,1.725C24.581,121.796,25.491,120.071,26.17,118.266 M473.385,118.772
	c-0.172-0.774-0.39-1.575-0.082-2.345c1.145,2.385,2.141,4.847,3.037,7.336c-0.923-0.529-1.489-2.055-2.729-1.633
	c-2.068,0.628-4.041,1.538-6.041,2.34c3.112,1.316,6.032,3.326,9.44,3.787c0.009-0.833,0-1.665,0.014-2.493
	c1.289,2.158,2.186,4.562,2.905,6.965c-0.905-0.924-1.603-2.118-2.843-2.63c-2.529-1.194-5.159-2.162-7.721-3.28
	c-1.666,3.376-3.331,6.761-4.874,10.2c-0.552,1.055-0.516,2.245-0.489,3.399c-1.34-2.566-2.353-5.291-3.362-7.997
	c0.602,0.443,1.113,1,1.665,1.512c0.684-0.141,0.951-0.9,1.331-1.408c1.335-2.258,2.236-4.733,3.421-7.068
	c-0.425-0.163-0.877-0.544-1.339-0.271c-1.702,0.651-3.444,1.253-5.06,2.1c-1.276,0.552-0.629,2.051-0.725,3.104
	c-1.34-2.358-2.281-4.929-3.159-7.485c0.688,0.569,1.29,1.235,1.905,1.892c2.956-0.68,5.671-2.082,8.509-3.113
	C469.266,120.75,471.592,120.252,473.385,118.772 M173.932,280.469c0.801-0.049,1.611-0.004,2.399,0.19
	c3.978,0.847,7.979,1.603,11.961,2.444c-0.339,1.316-0.303,2.819-1.199,3.924c-0.403-1.051-0.118-2.692-1.385-3.164
	c-2.05-0.805-4.25-1.271-6.445-1.335c-0.593,2.096-1.027,4.236-1.498,6.363c2.512,0.407,5.291,0.697,7.277,2.467
	c1.58,1.416,2.032,3.91,0.937,5.756c-0.896,1.426-2.652,1.996-4.245,2.169c-2.358,0.177-4.652-0.544-6.952-0.955
	c-1.525-0.357-3.141-0.452-4.562-1.154c0.996-0.245,2.584,0.136,2.938-1.172c1.09-3.63,1.683-7.399,2.611-11.079
	c0.172-1.055,0.633-2.178,0.276-3.227C175.453,281.125,174.62,280.89,173.932,280.469 M175.905,297.102
	c1.398,1.037,3.263,1.145,4.928,0.882c2.403-0.397,3.458-3.431,2.544-5.476c-1.118-2.1-3.775-2.182-5.82-2.616
	C176.959,292.281,176.48,294.702,175.905,297.102 M317.403,282.846c2.838-0.68,5.702-1.331,8.604-1.685
	c-0.774,0.612-1.888,0.824-2.448,1.652c-0.082,1.566,0.457,3.073,0.76,4.589c0.729,3.06,1.295,6.155,2.123,9.188
	c0.294,1.603,2.231,1.127,3.403,1.539c-2.879,0.697-5.789,1.381-8.734,1.707c0.787-0.598,1.688-1.015,2.562-1.467
	c-0.299-3.096-1.214-6.079-1.829-9.115c-0.452-1.766-0.66-3.607-1.316-5.313C319.987,282.683,318.412,283.33,317.403,282.846
	 M311.112,284.063c0.756,0.022,1.05-0.824,1.53-1.258c0.416,2.109,1.285,4.209,1.04,6.396c-0.873-1.154-1.565-2.521-2.855-3.269
	c-2.756-1.851-6.942-0.792-8.535,2.109c-0.86,1.443-1.051,3.186-0.874,4.838c0.249,2.466,1.05,5.064,3.051,6.676
	c2.294,1.959,5.752,1.684,8.269,0.294c1.253-0.702,1.95-2.182,3.385-2.589c-2.227,4.807-8.852,6.31-13.342,3.946
	c-3.661-2.019-5.173-6.752-4.236-10.681c0.738-3.199,3.63-5.49,6.722-6.25C307.18,283.764,309.162,284.058,311.112,284.063
	 M195.049,284.299c4.938,0.442,9.834,1.267,14.758,1.859c-0.181,1.335,0.1,2.893-0.846,3.996c-0.453-1-0.317-2.616-1.575-3.022
	c-2.213-0.612-4.634-1.155-6.897-0.879c-0.679,2.063-0.747,4.277-1.082,6.413c2.073,0.213,4.155,0.766,6.241,0.488
	c0.77-0.615,1.154-1.593,1.815-2.321c-0.004,2.132-0.353,4.264-0.81,6.346c-1.027,0.208-0.371-2.132-1.53-2.408
	c-1.887-0.701-3.951-0.737-5.933-0.991c-0.321,2.439-0.792,4.861-0.973,7.323c2.299,0.569,4.702,1.109,7.078,0.774
	c1.815-0.196,2.621-2.032,4.06-2.884c-0.326,1.625-1.14,3.087-1.783,4.603c-3.924-0.452-7.825-1.05-11.74-1.533
	c-1.131-0.159-2.294-0.232-3.344-0.707c0.837-0.249,1.814-0.168,2.552-0.688c0.634-1.285,0.666-2.762,0.91-4.15
	c0.412-3.354,1.113-6.675,1.394-10.043C197.448,285.172,195.81,285.004,195.049,284.299 M287.954,286.968
	c2.086-0.782,4.381-0.729,6.581-0.887c-1.087,0.72-2.408,1.321-2.87,2.652c-1.661,4.254-3.109,8.599-4.711,12.876
	c-0.503,1.213-1.023,2.606-2.295,3.209c-1.263,0.646-2.888,0.941-4.195,0.284c-0.742-0.43-0.417-1.357-0.349-2.022
	c0.317-0.123,0.955-0.366,1.271-0.494c0.838,0.358,1.589,0.879,2.276,1.477c1.562-0.358,2.829-2.48,1.584-3.802
	c-2.276-3.313-4.516-6.648-6.82-9.939c-0.706-1.136-2-1.569-3.181-2.005c2.701-0.574,5.476-0.792,8.231-0.973
	c-0.765,0.688-3.036,0.852-2.19,2.258c1.838,2.865,3.657,5.775,5.784,8.437c0.878-2.589,1.77-5.173,2.67-7.753
	c0.276-0.887,0.697-1.819,0.422-2.756C289.569,287.004,288.66,287.189,287.954,286.968 M218.212,286.982
	c5.255,0.329,10.545,0.61,15.754,1.38c-0.896,0.435-2.476,0.149-2.747,1.371c-0.557,2.644-0.562,5.372-0.883,8.052
	c-0.113,2.108-0.647,4.235-0.334,6.35c0.625,0.71,1.606,0.946,2.403,1.435c-2.797-0.055-5.617-0.204-8.364-0.742
	c0.787-0.258,1.611-0.389,2.376-0.711c0.661-0.711,0.597-1.77,0.747-2.666c0.29-4.141,0.928-8.26,1-12.409
	c-1.765-0.149-3.526-0.475-5.3-0.39c-0.521,0.286-0.756,0.842-0.774,1.417c-0.417,3.815-0.552,7.68-1.394,11.437
	c-0.303,1.575-1.43,3.231-3.19,3.241c-1.403,0.145-3.454-0.589-3.073-2.35c0.086-1.403,1.982-1.711,2.788-0.737
	c0.313,0.679,0.055,1.488,0.145,2.227c0.937-0.331,1.638-1.063,1.874-2.028c1.06-3.521,1.154-7.236,1.566-10.866
	c0-0.95,0.367-2.136-0.439-2.864C219.674,287.683,218.923,287.375,218.212,286.982 M238.135,303.944
	c2.896-5.24,4.928-10.921,7.852-16.148c1.743,3.521,3.15,7.192,4.761,10.772c1.031,2.222,1.769,4.606,3.19,6.63
	c0.534,0.267,1.067,0.547,1.597,0.851c-2.543,0.168-5.1,0.1-7.634-0.104c0.656-0.362,1.389-0.535,2.122-0.697
	c0.218-1.792-0.855-3.35-1.471-4.946c-2.412,0.004-4.82-0.064-7.232-0.077c-0.557,1.421-1.453,2.779-1.539,4.34
	c0.43,0.747,1.457,0.819,2.167,1.231c-2.032,0.163-4.087,0.172-6.11-0.123C236.668,305.198,237.673,304.854,238.135,303.944
	 M241.805,299.065c2.136,0.045,4.273,0.096,6.409,0.168c-0.968-2.463-2.05-4.875-3.041-7.328
	C243.996,294.269,242.937,296.686,241.805,299.065 M258.704,288.525c4.091,0.099,8.44-1.199,12.328,0.562
	c2.362,1.013,3.096,4.28,1.548,6.281c-1.783,2.715-5.422,2.756-8.323,2.752c0.222,2.141-0.072,4.399,0.661,6.458
	c0.706,0.593,1.765,0.497,2.606,0.832c-1.204,0.544-2.566,0.344-3.843,0.467c-1.475,0.032-2.991,0.412-4.43-0.05
	c0.773-0.512,2.416-0.462,2.394-1.706c0.082-2.412-0.19-4.82-0.304-7.228c-0.194-2.48-0.067-4.997-0.655-7.427
	c-0.67-0.172-1.34-0.34-2.001-0.489C258.69,288.865,258.699,288.639,258.704,288.525 M263.886,289.652
	c-0.117,2.476,0.195,4.951,0.326,7.422c1.937-0.036,4.326,0.05,5.594-1.715c1.127-1.874,0.737-4.993-1.593-5.734
	C266.873,289.2,265.085,288.747,263.886,289.652L263.886,289.652z"/>
</svg>
