<?xml version="1.0" encoding="iso-8859-1"?>
<!-- Generator: Adobe Illustrator 19.1.0, SVG Export Plug-In . SVG Version: 6.00 Build 0)  -->
<svg xmlns="http://www.w3.org/2000/svg" xmlns:xlink="http://www.w3.org/1999/xlink" version="1.1" id="Capa_1" x="0px" y="0px" viewBox="0 0 207.46 207.46" style="enable-background:new 0 0 207.46 207.46;" xml:space="preserve" width="512px" height="512px">
<g>
	<g>
		<g>
			<g>
				<path d="M46.463,36.609c10.102-0.049,18.251-8.324,18.202-18.427C64.606,8.109,56.37-0.029,46.267,0      c-10.083,0.039-18.26,8.285-18.202,18.397C28.124,28.49,36.39,36.668,46.463,36.609z" fill="#FFFFFF"/>
				<path d="M204.456,105.235l-13.639-42.07c-6.888-20.81-32.007-19.873-42.139-19.921v-0.02      c-1.622,0-1.016,0-2.648,0v0.01l-9.575,0.049c-26.204,0.606-32.535,19.873-32.535,19.873l-13.659,42.07      c0,0-3.869,8.256,3.449,11.118c5.628,2.237,8.285-1.544,10.122-6.312l15.476-43.575l4.807-0.02l-22.794,70.414h23.282      l0.205,60.262c0.039,5.706,4.68,10.366,10.386,10.347c5.823-0.039,10.395-4.68,10.386-10.425l-0.205-60.135      c0.371,0,0.537,0,0.772,0c1.573,0,2.384,0,2.462,0c0.293,0,0.41,0,0.791,0l-0.205,60.135      c-0.039,5.745,4.592,10.386,10.376,10.425c5.735,0.02,10.386-4.641,10.405-10.347l0.205-60.262h23.321L170.7,66.437l4.778,0.02      l15.476,43.575c1.876,4.758,4.494,8.549,10.141,6.312C208.325,113.5,204.456,105.235,204.456,105.235z" fill="#FFFFFF"/>
				<path d="M89.295,107.13l-0.274-45.05c-1.798-20.078-25.266-18.856-25.266-18.856l-36.531-0.596      C0.953,43.253,1.979,62.549,1.979,62.549v44.552h0.02l-0.029,0.293c0.02,4.279,3.527,7.728,7.758,7.728      c4.279-0.039,7.67-3.488,7.67-7.797v-0.342l0.049-41.142l4.875-0.029l0.645,131.213c0.02,5.745,4.68,10.386,10.474,10.386      c5.745-0.02,10.386-4.68,10.386-10.493l-0.449-84.668l4.67-0.059l0.498,84.746l0.078,0.098      c0.078,5.647,4.68,10.229,10.386,10.19c5.735-0.02,10.386-4.68,10.376-10.395L68.602,65.353l5.041-0.039l0.215,41.894v0.039      c0,4.279,3.459,7.738,7.738,7.718c4.279-0.039,7.699-3.488,7.699-7.748V107.13L89.295,107.13z" fill="#FFFFFF"/>
				<circle cx="148.034" cy="20.078" r="17.723" fill="#FFFFFF"/>
			</g>
		</g>
	</g>
</g>
<g>
</g>
<g>
</g>
<g>
</g>
<g>
</g>
<g>
</g>
<g>
</g>
<g>
</g>
<g>
</g>
<g>
</g>
<g>
</g>
<g>
</g>
<g>
</g>
<g>
</g>
<g>
</g>
<g>
</g>
</svg>
